<?xml version="1.0" encoding="UTF-8"?>
<svg version="1.1" xmlns="http://www.w3.org/2000/svg" width="512" height="512">
<path d="M0 0 C4.16223743 0.42013195 6.45533893 2.13105912 9.578125 4.7109375 C10.14096191 5.16283447 10.70379883 5.61473145 11.28369141 6.08032227 C22.3440807 15.11250367 34.16668376 25.9782647 35.69921875 40.96484375 C35.94609319 55.58852376 31.66233811 65.9593378 22.328125 77.3359375 C21.5561377 78.04810425 21.5561377 78.04810425 20.76855469 78.7746582 C16.13630204 83.30689944 15.60037125 87.10563064 15.4453125 93.48242188 C15.44789063 94.56845703 15.45046875 95.65449219 15.453125 96.7734375 C15.4325 97.88654297 15.411875 98.99964844 15.390625 100.14648438 C15.34374824 102.87705543 15.32366328 105.60504837 15.328125 108.3359375 C16.57916016 108.44808594 16.57916016 108.44808594 17.85546875 108.5625 C25.58695806 109.46583552 31.67056866 110.74668164 37.328125 116.3359375 C43.32987169 124.49476017 45.18819459 131.2608366 44.328125 141.3359375 C42.42328529 149.46019359 38.27237485 155.18619799 31.26171875 159.65234375 C25.34925268 162.68790325 19.86956664 162.77610927 13.328125 162.3359375 C13.204375 163.02816406 13.080625 163.72039062 12.953125 164.43359375 C9.76564861 179.55418487 2.30120415 189.36824252 -7.671875 201.3359375 C4.868125 201.6659375 17.408125 201.9959375 30.328125 202.3359375 C30.988125 201.0159375 31.648125 199.6959375 32.328125 198.3359375 C33.7734375 196.73828125 33.7734375 196.73828125 35.453125 195.2734375 C35.99195313 194.78746094 36.53078125 194.30148438 37.0859375 193.80078125 C44.37074338 189.04154396 51.36870125 188.88044556 59.82421875 188.90234375 C61.60639549 188.89448097 61.60639549 188.89448097 63.42457581 188.88645935 C65.92830629 188.88005779 68.43206692 188.88135184 70.93579102 188.88989258 C74.75006044 188.89840277 78.56283133 188.86961145 82.37695312 188.83789062 C84.81770789 188.83627834 87.25846528 188.83685667 89.69921875 188.83984375 C90.83072861 188.82860977 91.96223846 188.81737579 93.1280365 188.80580139 C102.0742432 188.88389631 109.1791763 190.80538657 115.890625 196.9609375 C116.55191406 197.55132812 117.21320313 198.14171875 117.89453125 198.75 C119.328125 200.3359375 119.328125 200.3359375 119.328125 202.3359375 C120.60864746 202.32022705 121.88916992 202.3045166 123.20849609 202.28833008 C127.99814465 202.23367942 132.78776611 202.19946043 137.57763672 202.17114258 C139.64343921 202.15613558 141.70921028 202.1357235 143.77490234 202.10961914 C146.75886838 202.07287789 149.74241007 202.05612986 152.7265625 202.04296875 C154.09281265 202.01974297 154.09281265 202.01974297 155.48666382 201.99604797 C163.74690212 201.99392141 172.04975767 203.5020486 178.7265625 208.67578125 C183.71658303 213.8483635 187.44377591 220.53359149 187.46513939 227.76889896 C187.4727512 229.13758266 187.4727512 229.13758266 187.48051679 230.53391653 C187.48101455 231.53778526 187.48151231 232.541654 187.48202515 233.57594299 C187.4864074 234.64134133 187.49078965 235.70673966 187.4953047 236.8044228 C187.50871313 240.39248479 187.5148762 243.98052221 187.52099609 247.56860352 C187.52889551 250.13406994 187.53716436 252.69953526 187.54577637 255.26499939 C187.56975119 262.97761509 187.58492822 270.6902296 187.59783643 278.4028708 C187.60154893 280.58187656 187.60552212 282.76088168 187.6095891 284.93988681 C187.63482897 298.47521279 187.65687914 312.01053981 187.66931725 325.54588413 C187.67224689 328.68106146 187.67520855 331.81623876 187.67822266 334.95141602 C187.67896871 335.73063748 187.67971476 336.50985894 187.68048342 337.31269317 C187.69313016 349.92847547 187.72634394 362.54411661 187.76802449 375.15983296 C187.81048058 388.11669935 187.83401662 401.07349355 187.83923781 414.0304293 C187.84264805 421.30338286 187.85435704 428.57611594 187.88734055 435.84900093 C187.91833112 442.69363189 187.92373727 449.53787313 187.91195679 456.38256264 C187.91173594 458.89235617 187.92005007 461.40216746 187.93761063 463.91189957 C187.96031469 467.34407632 187.95199966 470.7748619 187.93612671 474.20704651 C187.9500088 475.19530019 187.96389088 476.18355387 187.97819364 477.20175463 C187.88437769 485.46092371 185.25770741 491.77293186 180.015625 498.1484375 C172.61729191 504.17033653 167.23906898 506.48973022 157.67987633 506.47015858 C156.90160502 506.47251081 156.12333371 506.47486304 155.32147843 506.47728655 C152.69797814 506.4839752 150.07452739 506.48351836 147.45101929 506.48310852 C145.55728506 506.48640723 143.66355153 506.49013281 141.7698189 506.49425 C136.55343743 506.50427731 131.33706746 506.50798797 126.12067771 506.51063931 C120.49950403 506.51454017 114.87833949 506.52411864 109.25717163 506.53285217 C95.67617497 506.55262236 82.09517756 506.56268333 68.51417011 506.57157996 C62.12087228 506.5759618 55.72757528 506.58132887 49.33427811 506.58656883 C28.08554167 506.60358138 6.83680618 506.61810099 -14.41193581 506.62531757 C-15.78612275 506.62579233 -17.16030969 506.62626822 -18.53449663 506.62674524 C-19.55670335 506.6270998 -19.55670335 506.6270998 -20.59956071 506.62746153 C-24.05221366 506.62866272 -27.5048666 506.62987817 -30.95751953 506.63110352 C-31.64270803 506.63134367 -32.32789654 506.63158382 -33.03384833 506.63183124 C-55.24807625 506.63972374 -77.46225076 506.66315461 -99.67645537 506.69565946 C-123.16381224 506.72996448 -146.65112634 506.74966819 -170.13851202 506.75296181 C-182.94127894 506.75512822 -195.74396738 506.76389613 -208.54671097 506.78942299 C-219.44883945 506.81110991 -230.35087037 506.81919025 -241.25301798 506.80945621 C-246.81574286 506.80490577 -252.37826637 506.80684114 -257.94096375 506.82621765 C-263.03504 506.84380863 -268.12876739 506.84288448 -273.22284715 506.82732036 C-275.06408194 506.82493813 -276.90534063 506.82929965 -278.74653883 506.84114901 C-289.24354064 506.90451093 -298.32655355 506.72590309 -307.2578125 500.546875 C-307.84820312 499.94101562 -308.43859375 499.33515625 -309.046875 498.7109375 C-309.95566406 497.82535156 -309.95566406 497.82535156 -310.8828125 496.921875 C-317.7835054 486.94751102 -317.23143205 476.69716511 -317.1328125 465.0546875 C-317.13042487 463.19047168 -317.12952343 461.32625341 -317.1300354 459.46203613 C-317.12692227 455.57544672 -317.1104615 451.6892301 -317.08349609 447.80273438 C-317.04932837 442.81465528 -317.04187368 437.82698099 -317.04338646 432.83879852 C-317.04284386 428.99902465 -317.0318976 425.15933971 -317.01738358 421.31959534 C-317.0110126 419.4791379 -317.00707598 417.63867039 -317.00559616 415.79820251 C-317.00127702 413.23703636 -316.98381202 410.67630715 -316.96240234 408.11523438 C-316.96330872 407.35267334 -316.96421509 406.5901123 -316.96514893 405.80444336 C-316.90085043 400.56491293 -316.90085043 400.56491293 -314.671875 398.3359375 C-313.681875 398.3359375 -312.691875 398.3359375 -311.671875 398.3359375 C-311.671875 395.0359375 -311.671875 391.7359375 -311.671875 388.3359375 C-312.991875 388.0059375 -314.311875 387.6759375 -315.671875 387.3359375 C-316.671875 386.3359375 -316.671875 386.3359375 -316.859375 383.3984375 C-316.671875 380.3359375 -316.671875 380.3359375 -314.671875 378.3359375 C-313.681875 378.3359375 -312.691875 378.3359375 -311.671875 378.3359375 C-311.671875 375.0359375 -311.671875 371.7359375 -311.671875 368.3359375 C-312.991875 368.0059375 -314.311875 367.6759375 -315.671875 367.3359375 C-317.40605412 365.60175838 -316.809288 363.24764626 -316.81904602 360.88537598 C-316.82620132 359.70219788 -316.83335663 358.51901978 -316.84072876 357.29998779 C-316.84341766 355.9899176 -316.84610657 354.67984741 -316.84887695 353.33007812 C-316.85513911 351.94553455 -316.86178569 350.56099266 -316.86878967 349.17645264 C-316.88623109 345.40330649 -316.89676156 341.63017305 -316.9049952 337.85699654 C-316.91014237 335.49854944 -316.91621846 333.1401063 -316.92250633 330.78166199 C-316.94157354 323.39998526 -316.95579722 316.01831859 -316.9641183 308.63662195 C-316.97387493 300.12190798 -317.00014656 291.60745508 -317.04061919 283.09283304 C-317.07083138 276.51013425 -317.0855923 269.92751001 -317.08889931 263.34474325 C-317.09124547 259.41463246 -317.10014771 255.48480005 -317.12536049 251.55476379 C-317.14873355 247.85124695 -317.1528378 244.14818986 -317.14259911 240.44461823 C-317.14187174 238.44841053 -317.16090152 236.45222572 -317.18066406 234.45611572 C-317.12464079 224.72813567 -315.17561685 217.197538 -308.51171875 209.90625 C-300.5059566 203.07330651 -291.83914412 202.18151065 -281.77734375 202.23828125 C-280.82998856 202.2396962 -279.88263336 202.24111115 -278.90657043 202.24256897 C-275.89080605 202.24815139 -272.87511682 202.26070068 -269.859375 202.2734375 C-267.81054795 202.27845477 -265.76171973 202.28301728 -263.71289062 202.28710938 C-258.69918994 202.29811507 -253.6855452 202.31536762 -248.671875 202.3359375 C-248.3934375 201.7275 -248.115 201.1190625 -247.828125 200.4921875 C-244.80366778 194.85198349 -239.26048178 192.38390521 -233.54666138 190.17407227 C-228.46693892 188.69309544 -223.45653665 188.76603623 -218.19921875 188.8046875 C-217.03612686 188.8008606 -215.87303497 188.79703369 -214.67469788 188.79309082 C-212.22998177 188.7903835 -209.78523611 188.79766133 -207.34057617 188.81445312 C-203.61636353 188.83589726 -199.89407564 188.81459899 -196.16992188 188.7890625 C-193.78384995 188.7917056 -191.39777921 188.79683022 -189.01171875 188.8046875 C-187.90835678 188.79659058 -186.80499481 188.78849365 -185.66819763 188.78015137 C-176.8242871 188.88653712 -169.74022687 190.87930771 -163.109375 196.9609375 C-162.44808594 197.55132812 -161.78679687 198.14171875 -161.10546875 198.75 C-159.671875 200.3359375 -159.671875 200.3359375 -159.671875 202.3359375 C-147.131875 202.0059375 -134.591875 201.6759375 -121.671875 201.3359375 C-124.311875 198.3659375 -126.951875 195.3959375 -129.671875 192.3359375 C-135.61894343 183.40561742 -141.5308077 173.17607688 -142.671875 162.3359375 C-143.36152344 162.38234375 -144.05117187 162.42875 -144.76171875 162.4765625 C-153.5681874 162.81480821 -159.85586009 161.16393497 -166.484375 155.2109375 C-172.25029782 148.90864977 -174.40572556 141.52898906 -174.05859375 133.078125 C-173.03429677 125.81492822 -170.36691107 120.05865034 -164.671875 115.3359375 C-163.846875 114.6140625 -163.021875 113.8921875 -162.171875 113.1484375 C-157.84797514 110.0136101 -154.7929518 109.23759505 -149.49609375 109.2890625 C-148.59334717 109.29583008 -147.69060059 109.30259766 -146.76049805 109.30957031 C-146.07125244 109.31827148 -145.38200684 109.32697266 -144.671875 109.3359375 C-144.68075745 108.66101257 -144.68963989 107.98608765 -144.6987915 107.29071045 C-144.78781659 100.21700577 -144.84783686 93.14346225 -144.89160156 86.06933594 C-144.91162108 83.43515551 -144.93884502 80.80101898 -144.97363281 78.16699219 C-145.02257596 74.36382156 -145.04494157 70.56124244 -145.0625 66.7578125 C-145.08314514 65.59481628 -145.10379028 64.43182007 -145.12506104 63.23358154 C-145.12866247 49.87969878 -141.22590158 40.13420512 -131.98046875 30.58984375 C-125.7512028 24.7941694 -117.75180547 21.2331366 -109.21044922 21.19067383 C-108.33629364 21.18429398 -107.46213806 21.17791412 -106.56149292 21.17134094 C-105.62596588 21.17022812 -104.69043884 21.1691153 -103.7265625 21.16796875 C-102.27722824 21.16297615 -102.27722824 21.16297615 -100.7986145 21.15788269 C-98.75946529 21.15282606 -96.72030782 21.15047397 -94.68115234 21.15063477 C-91.55162102 21.14844083 -88.42243806 21.13025141 -85.29296875 21.11132812 C-83.31250121 21.10839551 -81.33203199 21.10640983 -79.3515625 21.10546875 C-78.411987 21.09828323 -77.4724115 21.09109772 -76.50436401 21.08369446 C-75.20258713 21.0883094 -75.20258713 21.0883094 -73.87451172 21.09301758 C-73.10936249 21.09159256 -72.34421326 21.09016754 -71.55587769 21.08869934 C-69.671875 21.3359375 -69.671875 21.3359375 -67.671875 23.3359375 C-67.671875 24.3259375 -67.671875 25.3159375 -67.671875 26.3359375 C-64.701875 26.3359375 -61.731875 26.3359375 -58.671875 26.3359375 C-58.011875 24.6859375 -57.351875 23.0359375 -56.671875 21.3359375 C-53.296875 21.2109375 -53.296875 21.2109375 -49.671875 21.3359375 C-47.671875 23.3359375 -47.671875 23.3359375 -47.671875 26.3359375 C-44.701875 26.3359375 -41.731875 26.3359375 -38.671875 26.3359375 C-38.011875 24.6859375 -37.351875 23.0359375 -36.671875 21.3359375 C-35.77726562 21.31015625 -34.88265625 21.284375 -33.9609375 21.2578125 C-21.37786215 20.75885715 -21.37786215 20.75885715 -10.83203125 14.5390625 C-7.60152724 10.4634144 -5.54273041 6.16077514 -3.671875 1.3359375 C-2.671875 0.3359375 -2.671875 0.3359375 0 0 Z " fill="#030303" transform="translate(320.671875,2.6640625)"/>
<path d="M0 0 C4.01984283 -0.23368566 8.03793087 -0.3748607 12.0625 -0.5 C13.19623047 -0.56703125 14.32996094 -0.6340625 15.49804688 -0.703125 C23.85226578 -0.89797559 23.85226578 -0.89797559 27.18877316 1.71247387 C28.9853363 3.84648132 28.9853363 3.84648132 30.57554436 6.04799461 C33.57676461 10.16072225 38.27162883 11.59707883 43 13 C47.10221991 13.63947286 51.0993582 13.72641515 55.24609375 13.69921875 C56.37845963 13.70637405 57.5108255 13.71352936 58.67750549 13.72090149 C61.05656149 13.72863677 63.4356892 13.72375578 65.81469727 13.70678711 C69.4253723 13.68756457 73.03219103 13.72701482 76.64257812 13.77148438 C93.42028677 14.25325835 93.42028677 14.25325835 108 7 C108.29754684 6.44183153 108.59509369 5.88366306 108.9016571 5.3085804 C110.36467648 2.84924211 111.59060596 1.58366551 114 0 C119.98316457 -1.11063202 125.94329591 -0.96783061 132.01147461 -0.92163086 C133.87291886 -0.93275737 135.73434742 -0.9468451 137.5957489 -0.96366882 C142.64559475 -0.99983695 147.6944629 -0.99159937 152.74437022 -0.9732101 C156.96167564 -0.96203729 161.17880339 -0.97294736 165.3961001 -0.98398215 C175.34585921 -1.00984325 185.29514605 -1.00026224 195.24487305 -0.9675293 C205.50629824 -0.93428434 215.76656757 -0.95540161 226.02790445 -1.00423139 C234.84174259 -1.04455198 243.65522555 -1.05373381 252.46914107 -1.03740031 C257.73167887 -1.02779836 262.99358348 -1.0293702 268.25605583 -1.05979729 C273.20518482 -1.08683783 278.1527218 -1.07482676 283.10173225 -1.03291512 C284.91613381 -1.02394772 286.7306618 -1.02855598 288.54498291 -1.04785156 C302.31034708 -1.18198975 302.31034708 -1.18198975 306.52050972 1.7632122 C308.36817932 3.91136169 308.36817932 3.91136169 309.69147587 6.0477972 C312.42650909 10.12822597 317.51014711 11.50338237 322 13 C323.61342997 13.10681996 325.23079847 13.15862601 326.84765625 13.17700195 C327.8329834 13.18983719 328.81831055 13.20267242 329.83349609 13.21589661 C331.43185303 13.22697701 331.43185303 13.22697701 333.0625 13.23828125 C334.16416504 13.246353 335.26583008 13.25442474 336.40087891 13.26274109 C338.73777697 13.27658287 341.07469526 13.2873046 343.41162109 13.29516602 C346.9584081 13.31229909 350.50424348 13.35617623 354.05078125 13.40039062 C356.325514 13.41052492 358.60025466 13.41903871 360.875 13.42578125 C362.44906616 13.45204338 362.44906616 13.45204338 364.05493164 13.47883606 C373.84621763 13.45048988 382.35087679 11.20224805 389.66015625 4.46484375 C391.22204766 2.83187925 391.22204766 2.83187925 393 0 C395.52197266 -0.34057617 395.52197266 -0.34057617 398.6640625 -0.29296875 C399.78554688 -0.28330078 400.90703125 -0.27363281 402.0625 -0.26367188 C403.238125 -0.23853516 404.41375 -0.21339844 405.625 -0.1875 C407.40003906 -0.16719727 407.40003906 -0.16719727 409.2109375 -0.14648438 C412.14107539 -0.11103916 415.07031459 -0.06162769 418 0 C418.02332537 28.14563002 418.04097739 56.2912586 418.05181217 84.43689632 C418.0569759 97.50440226 418.06402006 110.57190221 418.07543945 123.6394043 C418.08538395 135.02453397 418.09185287 146.4096593 418.09408849 157.79479319 C418.095396 163.82718446 418.09848437 169.85956331 418.10573006 175.89195061 C418.11248658 181.56269857 418.11461772 187.23342892 418.11310768 192.90418053 C418.11338418 194.99202317 418.11539147 197.07986636 418.11920547 199.16770554 C418.12413698 202.00500916 418.12300031 204.84224518 418.12025452 207.67955017 C418.12462378 208.93584816 418.12462378 208.93584816 418.12908131 210.2175259 C418.11412121 215.88587879 418.11412121 215.88587879 417 217 C414.73442613 217.09707611 412.46575698 217.12186621 410.19810486 217.12025452 C409.1187654 217.12153615 409.1187654 217.12153615 408.0176211 217.12284368 C405.5884642 217.1245006 403.15937523 217.11897368 400.73022461 217.11352539 C398.99610903 217.11324354 397.26199332 217.11340121 395.52787781 217.1139679 C390.80493679 217.11425595 386.08202094 217.10835799 381.3590858 217.10139394 C376.4289721 217.09516166 371.49885788 217.0945567 366.56874084 217.09336853 C357.22603638 217.09025484 347.88334356 217.08204095 338.54064423 217.07201904 C327.90720945 217.06085907 317.27377413 217.05534775 306.64033496 217.05032361 C284.7602168 217.03985836 262.88010913 217.02225819 241 217 C240.33066847 209.33356381 239.66410297 201.66689087 239 194 C238.89272583 192.76323517 238.78545166 191.52647034 238.67492676 190.25222778 C238.19888842 184.66436799 237.79275815 179.07563984 237.4453125 173.47827148 C237.3132108 171.50615825 237.1609483 169.53530869 236.99023438 167.56616211 C235.57305672 151.0049267 235.57305672 151.0049267 239.09814453 146.05200195 C241.7734375 143.9609375 241.7734375 143.9609375 244.47412109 142.47412109 C250.16182159 139.15473818 252.51389774 132.13118099 255.08447266 126.32592773 C255.62305405 125.11065651 255.62305405 125.11065651 256.17251587 123.87083435 C256.44558563 123.25345901 256.7186554 122.63608368 257 122 C257.58199472 121.99761165 258.16398945 121.99522329 258.76362038 121.99276257 C272.93599395 121.93358262 287.10820127 121.85801347 301.28038979 121.76428509 C308.13401373 121.71935207 314.987586 121.67993175 321.84130859 121.65356445 C328.45498408 121.62810508 335.06844729 121.58718352 341.68198776 121.53681374 C344.20572423 121.52012329 346.7295005 121.50862262 349.25328445 121.50238609 C352.78710321 121.49276904 356.32033046 121.46473691 359.85400391 121.43237305 C360.89841644 121.43380814 361.94282898 121.43524323 363.01889038 121.4367218 C368.39282508 121.36707647 372.42062686 121.1429744 377 118 C382.3738418 112.17729573 381.57907014 103.71743814 381.53125 96.33984375 C381.53699036 94.38408165 381.53699036 94.38408165 381.54284668 92.3888092 C381.54871412 89.64109135 381.54026802 86.89389682 381.52148438 84.14624023 C381.49867251 80.6402401 381.51184756 77.13546358 381.53577423 73.62950802 C381.5537741 70.26202406 381.54114126 66.89486237 381.53125 63.52734375 C381.54339539 61.65054176 381.54339539 61.65054176 381.55578613 59.73582458 C381.4836835 53.01717841 381.35574614 48.28620108 377 43 C372.44031103 40.19315044 369.02387677 39.63145328 363.70947266 39.65942383 C362.6547728 39.65876671 362.6547728 39.65876671 361.57876587 39.65809631 C359.27357417 39.66017272 356.96912585 39.68344812 354.6640625 39.70703125 C353.05838417 39.71263132 351.45270069 39.71689948 349.84701538 39.71989441 C345.63504716 39.7313109 341.4233927 39.76075021 337.21154785 39.79400635 C332.90800215 39.82477643 328.60440541 39.83841453 324.30078125 39.85351562 C315.86704403 39.8856233 307.43356112 39.93678055 299 40 C298.34 41.32 297.68 42.64 297 44 C293.7 44 290.4 44 287 44 C286.34 42.68 285.68 41.36 285 40 C283.02 40 281.04 40 279 40 C278.34 41.32 277.68 42.64 277 44 C273.7 44 270.4 44 267 44 C266.34 42.68 265.68 41.36 265 40 C263.84064941 40.05349609 262.68129883 40.10699219 261.48681641 40.16210938 C257.14430157 40.34078325 252.8052934 40.41163783 248.45947266 40.45166016 C246.58701057 40.48359362 244.71479311 40.54395204 242.84423828 40.63427734 C227.6463677 41.33945854 227.6463677 41.33945854 223.15905762 37.37255859 C219.62718009 32.97988136 217.37461553 28.07797017 215 23 C211.76255799 21.381279 208.50037575 21.44373874 205 22 C201.63250517 24.29975257 200.37244541 26.15163805 198.72970676 29.89349365 C194.81757214 38.32702079 194.81757214 38.32702079 190.03249931 40.09875488 C186.26201225 40.49113822 182.58610883 40.50659853 178.80639648 40.390625 C177.36683249 40.39055408 175.92725985 40.39582857 174.48773193 40.40602112 C171.39697394 40.41638073 168.30971891 40.38897316 165.21948051 40.33169556 C160.33152648 40.2410988 155.44556231 40.23381479 150.55690002 40.23706055 C142.82515891 40.23213387 135.09509791 40.16963907 127.3638764 40.08344364 C113.51891848 39.93094561 99.67338404 39.87602318 85.82768303 39.84265709 C80.9708772 39.82866885 76.11511162 39.78944546 71.25866878 39.72895145 C68.23635288 39.69442101 65.21407356 39.67579716 62.19160461 39.6606884 C60.79273378 39.65006425 59.39389541 39.63246963 57.99521065 39.60730171 C49.86246047 39.18971993 49.86246047 39.18971993 42.30848694 41.6472168 C37.99815982 46.04025237 36.62791823 49.97644385 36.59594727 56.06201172 C36.57692101 57.82446732 36.57692101 57.82446732 36.55751038 59.62252808 C36.56044601 60.87889069 36.56338165 62.1352533 36.56640625 63.4296875 C36.5611644 64.73398712 36.55592255 66.03828674 36.55052185 67.3821106 C36.5416117 70.13748886 36.5439887 72.89257698 36.55395508 75.64794922 C36.56542899 79.16059157 36.54524861 82.6722262 36.51603794 86.18473625 C36.49316183 89.55810464 36.50014795 92.93124363 36.50390625 96.3046875 C36.49267227 97.55700165 36.48143829 98.8093158 36.46986389 100.09957886 C36.54104091 109.72383375 36.54104091 109.72383375 41 118 C45.73500695 122.08790418 51.20145077 121.44041173 57.12426758 121.43237305 C58.8078537 121.44766052 58.8078537 121.44766052 60.52545166 121.46325684 C64.23186203 121.49342833 67.93801412 121.50265943 71.64453125 121.51171875 C74.21572227 121.52856229 76.78690503 121.54671209 79.358078 121.56611633 C85.4317383 121.6087994 91.50533159 121.63831655 97.57909364 121.66143972 C104.49572327 121.68850759 111.41221409 121.73241805 118.32874453 121.77772844 C132.5524183 121.87053156 146.77614296 121.94223208 161 122 C161.51949219 123.08539063 162.03898438 124.17078125 162.57421875 125.2890625 C163.27820848 126.73458808 163.98266025 128.1798887 164.6875 129.625 C165.02716797 130.33785156 165.36683594 131.05070313 165.71679688 131.78515625 C168.60276481 137.66497876 171.70765079 143.16472528 177.8046875 146.13671875 C180.18511252 147.77640923 180.89385501 148.50940797 181.51269531 151.36962891 C181.57722433 154.54740961 181.35295044 157.64184519 181.125 160.8125 C181.04765625 161.95013794 180.9703125 163.08777588 180.890625 164.2598877 C180.11607267 175.51400096 179.27814407 186.76296414 178.4296875 198.01171875 C178.29024119 199.86502776 178.15083666 201.71833992 178.01147461 203.57165527 C177.67479621 208.04780644 177.33755886 212.52391515 177 217 C154.06972277 217.02332651 131.13944748 217.04097795 108.2091608 217.05181217 C97.56302049 217.05697566 86.91688754 217.06401935 76.27075195 217.07543945 C66.99513079 217.08538469 57.71951495 217.09185304 48.4438886 217.09408849 C43.52932319 217.09539588 38.61477302 217.09848345 33.70021248 217.10573006 C29.08005652 217.11248775 24.45992217 217.11461748 19.83976173 217.11310768 C18.13893263 217.11338412 16.43810284 217.11539073 14.73727798 217.11920547 C12.42545663 217.12413881 10.11371819 217.12299964 7.80189514 217.12025452 C6.50493241 217.12117631 5.20796968 217.1220981 3.87170506 217.12304783 C1 217 1 217 0 216 C-0.09789273 213.21838136 -0.12993016 210.46159544 -0.12025452 207.67955017 C-0.12110894 206.79664844 -0.12196337 205.9137467 -0.12284368 205.00409037 C-0.1245012 202.02215665 -0.11897269 199.04027821 -0.11352539 196.05834961 C-0.11324355 193.93015036 -0.11340119 191.80195102 -0.1139679 189.67375183 C-0.114256 183.87646683 -0.10835723 178.07920232 -0.10139394 172.2819221 C-0.0951625 166.2307195 -0.09455677 160.17951648 -0.09336853 154.12831116 C-0.09025459 142.66064969 -0.08204037 131.19299771 -0.07201904 119.72534043 C-0.06085983 106.67357166 -0.05534794 93.62180244 -0.05032361 80.57003009 C-0.0398578 53.71334813 -0.02225716 26.8566746 0 0 Z " fill="#EBEBEB" transform="translate(47,249)"/>
<path d="M0 0 C1.1707608 0.0001133 1.1707608 0.0001133 2.36517334 0.00022888 C3.19760559 0.00539017 4.03003784 0.01055145 4.88769531 0.01586914 C5.74768127 0.01728409 6.60766724 0.01869904 7.49371338 0.02015686 C10.2344514 0.02574442 12.97510707 0.03829465 15.71582031 0.05102539 C17.57649621 0.056042 19.4371734 0.06060462 21.29785156 0.06469727 C25.85389823 0.07485794 30.40976732 0.09443578 34.96582031 0.11352539 C34.96582031 7.70352539 34.96582031 15.29352539 34.96582031 23.11352539 C23.77832031 23.30102539 23.77832031 23.30102539 20.27758789 23.32128906 C14.0782843 23.48755752 14.0782843 23.48755752 8.79003906 26.53930664 C5.65470278 30.96368911 5.8174983 34.38349301 5.81864929 39.66571045 C5.8149726 40.56156742 5.81129592 41.4574244 5.80750781 42.38042855 C5.79644141 45.40051601 5.79262214 48.4205691 5.78881836 51.44067383 C5.78255595 53.59869497 5.77590936 55.75671502 5.76890564 57.91473389 C5.75147546 63.79086022 5.74093844 69.6669784 5.73270011 75.5431242 C5.72755438 79.211981 5.72147846 82.88083525 5.71518898 86.54969025 C5.69613153 98.02184204 5.68190141 109.49398737 5.67357701 120.96615195 C5.66380067 134.22154612 5.63747297 147.47677347 5.59707612 160.73210883 C5.56694546 170.96910234 5.55211104 181.20604795 5.548796 191.44308496 C5.54644208 197.56118934 5.53743716 203.67911562 5.51233482 209.79717255 C5.48910248 215.55258496 5.48480148 221.3077014 5.49509621 227.0631485 C5.49559285 229.17631513 5.48923474 231.28949609 5.47554016 233.40261841 C5.45789495 236.28657106 5.46489128 239.16945307 5.47807312 242.05340576 C5.46710387 242.8905731 5.45613463 243.72774044 5.44483298 244.59027648 C5.50334283 249.88875295 6.43262008 252.92229523 9.96582031 257.11352539 C13.66170525 259.57744868 15.47995615 259.36591595 19.89311695 259.3707943 C20.60558623 259.37430037 21.3180555 259.37780645 22.05211475 259.38141876 C24.45781865 259.39077937 26.86328293 259.38579755 29.26899719 259.38095093 C31.00385317 259.38468485 32.73870747 259.38928533 34.47355908 259.39468157 C39.25527909 259.40695899 44.03692938 259.40664555 48.81866157 259.40429282 C53.97011203 259.40388585 59.12153977 259.41491238 64.27297974 259.42440796 C74.37121565 259.44104506 84.46942823 259.44651873 94.5676767 259.44763272 C102.77360312 259.44858194 110.97952181 259.45268593 119.18544579 259.45903397 C142.43443074 259.47665401 165.6833972 259.48587168 188.93238888 259.48437302 C190.18664147 259.48429311 191.44089405 259.48421319 192.7331543 259.48413086 C193.98893275 259.4840491 195.2447112 259.48396734 196.53854354 259.4838831 C216.89418976 259.48307005 237.24976201 259.50221045 257.60538683 259.53040759 C278.49040525 259.5591105 299.37538757 259.57294931 320.26042622 259.57122004 C331.99219998 259.57055523 343.72389621 259.57608744 355.45565224 259.59757614 C365.44408051 259.61575388 375.43239612 259.62016339 385.42083374 259.60655729 C390.51927266 259.60001031 395.61749521 259.59997266 400.71591377 259.61726379 C405.38115721 259.63292339 410.04601143 259.63020405 414.71124496 259.61269553 C416.40102376 259.60960987 418.0908311 259.61331655 419.78057627 259.62441568 C422.07452484 259.63848827 424.36709902 259.62799029 426.66100025 259.61130333 C427.93599378 259.61173807 429.21098732 259.6121728 430.52461702 259.61262071 C435.11374447 258.94703608 438.4120101 257.05767846 441.32452679 253.41348934 C442.34604022 249.74988763 442.24347072 246.08657779 442.22651672 242.31410217 C442.23034227 241.41583078 442.23416782 240.51755939 442.23810929 239.59206766 C442.24844535 236.57580495 442.24444598 233.55973238 442.24047852 230.54345703 C442.24482464 228.38351769 442.25000745 226.2235799 442.25596619 224.06364441 C442.26937784 218.19181467 442.26993246 212.32004921 442.26740289 206.44820714 C442.26633468 201.54989045 442.27121266 196.65158684 442.27600831 191.75327295 C442.28711091 180.19960044 442.28753661 168.64596043 442.28149414 157.09228516 C442.2754521 145.16460938 442.28776955 133.23705151 442.30906421 121.30939585 C442.32666415 111.07576845 442.33268412 100.84217864 442.32942647 90.60853666 C442.32761096 84.49333107 442.33027644 78.37820958 442.34414101 72.26301765 C442.35668862 66.51335202 442.35480428 60.76387055 442.34173012 55.01420784 C442.33935813 52.9022414 442.34212119 50.79026212 442.35035324 48.67831039 C442.36076965 45.79863547 442.35276106 42.91958438 442.34004211 40.03993225 C442.3474164 39.20121631 442.35479068 38.36250037 442.36238843 37.4983688 C442.31932313 32.87403502 441.93726734 29.88613798 438.96582031 26.11352539 C435.97318599 24.045987 433.34986273 23.82459664 429.76269531 23.69946289 C428.87936523 23.66385254 427.99603516 23.62824219 427.0859375 23.59155273 C425.97379883 23.55755371 424.86166016 23.52355469 423.71582031 23.48852539 C420.16832031 23.36477539 416.62082031 23.24102539 412.96582031 23.11352539 C412.96582031 15.52352539 412.96582031 7.93352539 412.96582031 0.11352539 C418.69579625 0.02151864 424.42319327 -0.05806502 430.15332031 -0.10620117 C432.10099997 -0.12627367 434.04861968 -0.15353793 435.99609375 -0.18823242 C438.80125752 -0.23694313 441.60562218 -0.25948702 444.41113281 -0.27709961 C445.27699005 -0.29774475 446.14284729 -0.31838989 447.03494263 -0.33966064 C453.3619392 -0.34199066 456.97708976 1.20998431 461.61035156 5.71118164 C464.78474166 9.69244012 466.0875974 12.4099281 466.1028347 17.45836926 C466.11044652 18.79755249 466.11044652 18.79755249 466.1182121 20.16378993 C466.11870986 21.14567721 466.11920762 22.12756449 466.11972046 23.13920593 C466.12410271 24.18151408 466.12848497 25.22382224 466.13300002 26.29771549 C466.14640708 29.80752826 466.15257117 33.31731592 466.15869141 36.82714844 C466.16659084 39.33674738 466.17485969 41.84634518 466.18347168 44.35594177 C466.20744375 51.8994684 466.22262195 59.4429938 466.23553175 66.98654649 C466.2392441 69.11737301 466.2432173 71.24819887 466.24728441 73.37902474 C466.2725213 86.61273916 466.2945732 99.84645463 466.30701256 113.0801878 C466.30994223 116.14525545 466.31290389 119.21032306 466.31591797 122.27539062 C466.31666402 123.03719302 466.31741007 123.79899541 466.31817873 124.58388273 C466.33083073 136.92295699 466.36405202 149.26188711 466.4057198 161.600894 C466.44815382 174.2707276 466.47170927 186.94048744 466.47693312 199.61039191 C466.48034558 206.72343452 466.49208103 213.83625185 466.52503586 220.94922447 C466.55598948 227.64120036 466.56144504 234.33271517 466.5496521 241.02477455 C466.54943097 243.48058154 466.55776822 245.9364065 466.57530594 248.39215088 C466.59795467 251.74621697 466.5897209 255.09885348 466.57382202 258.45292664 C466.58770411 259.42366031 466.6015862 260.39439398 466.61588895 261.39454383 C466.54045021 267.85830374 465.095005 272.0960517 460.96582031 277.11352539 C455.61295346 282.07471906 451.59319385 283.41199978 444.3744545 283.37358761 C443.60233749 283.37739328 442.83022049 283.38119895 442.034706 283.38511994 C439.43210743 283.39547492 436.82972539 283.39152239 434.22711182 283.38768005 C432.34845 283.39213034 430.46979005 283.39744369 428.59113288 283.40354878 C423.41648314 283.41776435 418.24189336 283.4193914 413.06722689 283.41895187 C407.49107393 283.42059695 401.91494591 283.43365766 396.33880615 283.44514465 C384.14054814 283.46801774 371.9423075 283.47591772 359.74403095 283.4809711 C352.13029279 283.48422539 344.5165597 283.49074623 336.9028244 283.49797249 C315.83079831 283.5175413 294.75877621 283.53402519 273.68674088 283.53684902 C273.01262241 283.53694308 272.33850394 283.53703714 271.64395764 283.53713406 C268.91200807 283.53751254 266.18005849 283.53787654 263.44810891 283.53823703 C261.39183823 283.53850875 259.33556755 283.53878543 257.27929688 283.5390625 C256.59982622 283.53915052 255.92035557 283.53923855 255.2202949 283.53932924 C233.87143192 283.54223461 212.52265948 283.56432916 191.17382812 283.60058594 C167.19416772 283.64130952 143.21457814 283.66498798 119.23487449 283.66530854 C106.53611435 283.66589373 93.83747074 283.67442566 81.13874054 283.7033062 C70.32656533 283.7277827 59.51454915 283.73512817 48.70235375 283.72005867 C43.18439242 283.71287458 37.66674534 283.71381194 32.14881897 283.73646927 C27.09795131 283.75701035 22.04764048 283.75450432 16.99677917 283.73359443 C15.16903892 283.73009021 13.34125888 283.7350488 11.51357082 283.74929886 C-5.42625494 283.87286811 -5.42625494 283.87286811 -12.03417969 278.11352539 C-17.10801823 272.63912065 -18.33184652 268.50922846 -18.35302734 261.13208008 C-18.36809578 259.93151474 -18.36809578 259.93151474 -18.38346863 258.70669556 C-18.41431168 256.06627101 -18.43133882 253.42594791 -18.44824219 250.78540039 C-18.46695294 248.95264818 -18.48652628 247.11990458 -18.50692749 245.28717041 C-18.55826452 240.46709271 -18.59788186 235.64698708 -18.6350708 230.82678223 C-18.67510057 225.9066679 -18.72619761 220.98666993 -18.77636719 216.06665039 C-18.87314509 206.41569045 -18.95754396 196.76466482 -19.03417969 187.11352539 C-20.35417969 186.45352539 -21.67417969 185.79352539 -23.03417969 185.11352539 C-23.03417969 181.81352539 -23.03417969 178.51352539 -23.03417969 175.11352539 C-24.35417969 174.78352539 -25.67417969 174.45352539 -27.03417969 174.11352539 C-28.03417969 173.11352539 -28.03417969 173.11352539 -28.22167969 170.17602539 C-28.03417969 167.11352539 -28.03417969 167.11352539 -26.03417969 165.11352539 C-25.04417969 165.11352539 -24.05417969 165.11352539 -23.03417969 165.11352539 C-23.03417969 161.81352539 -23.03417969 158.51352539 -23.03417969 155.11352539 C-21.05417969 154.12352539 -21.05417969 154.12352539 -19.03417969 153.11352539 C-19.03271313 152.40453094 -19.03124657 151.6955365 -19.02973557 150.96505737 C-18.99264796 133.69590463 -18.93360744 116.42696584 -18.85027695 99.15797424 C-18.81050525 90.806729 -18.7781033 82.45557772 -18.76318359 74.10424805 C-18.75015734 66.8233289 -18.72316797 59.5426167 -18.67956662 52.26181412 C-18.6569735 48.40834814 -18.6412677 44.5551372 -18.64229584 40.70159912 C-18.64304374 37.07022554 -18.62504168 33.43941525 -18.59301186 29.80818748 C-18.58050787 27.84883405 -18.58756677 25.88938592 -18.59532166 23.93000793 C-18.50604571 16.35454155 -17.9926338 10.34782796 -12.58709335 4.56559753 C-8.56163017 0.96354828 -5.25807791 -0.01707168 0 0 Z " fill="#70BFE5" transform="translate(32.0341796875,215.886474609375)"/>
<path d="M0 0 C45.54 0 91.08 0 138 0 C138 85.75260805 138 85.75260805 117.94140625 107.24609375 C116.96433238 108.16767513 115.98373214 109.08552929 115 110 C114.28774261 110.767108 114.28774261 110.767108 113.56109619 111.54971313 C106.8631529 117.788685 98.5612608 116.92744792 89.98046875 116.90234375 C88.31430615 116.91402535 86.64815237 116.92703359 84.98200989 116.94129944 C81.49772128 116.96361476 78.01434483 116.96286798 74.5300293 116.94702148 C70.09070923 116.92966096 65.65515444 116.98038485 61.21645641 117.0500555 C57.7767448 117.09452052 54.33792219 117.09684955 50.89797401 117.08752632 C49.26303982 117.08905408 47.62805057 117.10454318 45.99339867 117.13496208 C36.19281179 117.29495285 29.64523267 116.43271623 22.20283508 109.33326721 C21.11243172 108.17829994 21.11243172 108.17829994 20 107 C18.87787361 105.90346352 18.87787361 105.90346352 17.733078 104.78477478 C7.79008453 94.8977105 3.78345579 82.24209526 0 69 C0 46.23 0 23.46 0 0 Z " fill="#FEB59E" transform="translate(187,90)"/>
<path d="M0 0 C3.0625 0.1875 3.0625 0.1875 5.0625 2.1875 C5.0625 3.1775 5.0625 4.1675 5.0625 5.1875 C5.74957031 5.14109375 6.43664062 5.0946875 7.14453125 5.046875 C8.04558594 5.01078125 8.94664062 4.9746875 9.875 4.9375 C10.76832031 4.89109375 11.66164063 4.8446875 12.58203125 4.796875 C13.80986328 4.99023438 13.80986328 4.99023438 15.0625 5.1875 C15.47197876 5.84527939 15.88145752 6.50305878 16.30334473 7.18077087 C17.9537096 9.48980694 17.9537096 9.48980694 21.02258301 9.68629456 C22.23265015 9.68612839 23.44271729 9.68596222 24.68945312 9.68579102 C25.3580687 9.69130981 26.02668427 9.69682861 26.71556091 9.70251465 C28.16584843 9.71183394 29.61621778 9.71194028 31.06651306 9.70392036 C33.36153119 9.69130854 35.6553434 9.70256087 37.95031738 9.71995544 C41.99341916 9.74668068 46.03622618 9.75225017 50.07940674 9.75085449 C56.55114884 9.74862741 63.0225264 9.76267925 69.49412537 9.80644035 C71.75608372 9.81629659 74.01747212 9.8075528 76.27941895 9.79774475 C77.66479875 9.80388797 79.05017543 9.81079937 80.43554688 9.81860352 C81.64561401 9.81764175 82.85568115 9.81667999 84.10241699 9.81568909 C87.0625 10.1875 87.0625 10.1875 88.95143127 11.36621094 C90.49137508 13.89052177 90.45050939 15.74586803 90.46655273 18.69702148 C90.48557899 20.38908974 90.48557899 20.38908974 90.50498962 22.11534119 C90.50205399 23.33411453 90.49911835 24.55288788 90.49609375 25.80859375 C90.5013356 27.06003677 90.50657745 28.3114798 90.51197815 29.60084534 C90.51840767 32.2499221 90.51848483 34.8981394 90.50854492 37.54711914 C90.49705949 40.9380656 90.5172568 44.32797002 90.54646206 47.71877956 C90.56924541 50.95705629 90.56235655 54.19525563 90.55859375 57.43359375 C90.56982773 58.65034286 90.58106171 59.86709198 90.59263611 61.12071228 C90.58325516 62.25190994 90.57387421 63.3831076 90.56420898 64.54858398 C90.56404282 65.5432518 90.56387665 66.53791962 90.56370544 67.56272888 C90.0625 70.1875 90.0625 70.1875 88.68963623 72.51055908 C84.5092134 75.17898641 80.38357991 74.7189128 75.52661133 74.6574707 C73.91880547 74.6607563 73.91880547 74.6607563 72.27851868 74.66410828 C68.73354301 74.66642099 65.18939626 74.64015758 61.64453125 74.61328125 C59.18641931 74.60835931 56.72830363 74.60505915 54.27018738 74.60331726 C49.11953766 74.59567396 43.96916549 74.5750995 38.81860352 74.54418945 C32.2003905 74.50455211 25.58235799 74.48657151 18.9640398 74.47688007 C12.67001225 74.46693026 6.37602932 74.44702158 0.08203125 74.42578125 C-1.12725729 74.4223855 -2.33654583 74.41898975 -3.58247948 74.4154911 C-6.98497271 74.40397404 -10.3873484 74.38546376 -13.78979492 74.36450195 C-14.8084967 74.36181305 -15.82719849 74.35912415 -16.87677002 74.35635376 C-17.79792099 74.34919846 -18.71907196 74.34204315 -19.6681366 74.33467102 C-20.47319736 74.33039754 -21.27825811 74.32612406 -22.10771465 74.32172108 C-23.9375 74.1875 -23.9375 74.1875 -24.9375 73.1875 C-25.21461526 70.96154152 -25.45816929 68.73138779 -25.6875 66.5 C-28.04480611 47.43302023 -38.28338128 30.46908734 -48.5390625 14.55859375 C-49.9375 12.1875 -49.9375 12.1875 -49.9375 10.1875 C-48.98383545 10.1781543 -48.0301709 10.16880859 -47.04760742 10.15917969 C-43.50807038 10.11929567 -39.96940407 10.05354341 -36.43041992 9.97998047 C-34.89895822 9.95176122 -33.36735061 9.93055131 -31.83569336 9.91650391 C-29.63319151 9.89508574 -27.43244541 9.84844862 -25.23046875 9.796875 C-24.54599167 9.79564636 -23.86151459 9.79441772 -23.15629578 9.79315186 C-20.98117918 9.76951142 -20.98117918 9.76951142 -17.9375 9.1875 C-16.11163885 7.27100795 -16.11163885 7.27100795 -14.9375 5.1875 C-12.45703125 4.796875 -12.45703125 4.796875 -9.75 4.9375 C-8.84894531 4.97359375 -7.94789063 5.0096875 -7.01953125 5.046875 C-5.98892578 5.11648438 -5.98892578 5.11648438 -4.9375 5.1875 C-4.793125 4.548125 -4.64875 3.90875 -4.5 3.25 C-3.62922221 0.05714811 -3.44717239 0.22003228 0 0 Z " fill="#13BE6D" transform="translate(328.9375,287.8125)"/>
<path d="M0 0 C1.1568631 -0.00412399 2.3137262 -0.00824799 3.50564575 -0.01249695 C5.41104378 0.00368179 5.41104378 0.00368179 7.35493469 0.02018738 C8.70511354 0.02103353 10.05529376 0.02055874 11.4054718 0.01885986 C15.07265318 0.01799802 18.73954104 0.03565414 22.40665412 0.05658174 C26.23834231 0.07531713 30.07003699 0.07709649 33.90176392 0.08065796 C41.15846071 0.08998768 48.41502214 0.11461392 55.67165929 0.14470643 C63.93273759 0.17822167 72.1938223 0.1947292 80.45495164 0.20979273 C97.44944164 0.24116273 114.44379984 0.29394115 131.43818665 0.36076355 C130.06605002 3.8703348 128.55154265 7.06446355 126.6452179 10.3177948 C126.10034729 11.25800476 125.55547668 12.19821472 124.99409485 13.16691589 C124.13110779 14.65505798 124.13110779 14.65505798 123.25068665 16.17326355 C114.86406998 30.83973627 107.97268266 44.35355092 106.6842804 61.39201355 C106.43818665 63.36076355 106.43818665 63.36076355 105.43818665 64.36076355 C104.01803583 64.46493652 102.5927696 64.50037588 101.16882324 64.50793457 C100.24767227 64.51508987 99.3265213 64.52224518 98.37745667 64.52961731 C97.35875488 64.53230621 96.3400531 64.53499512 95.29048157 64.5377655 C94.22386795 64.5443367 93.15725433 64.5509079 92.05831909 64.55767822 C88.51176391 64.57746632 84.96525116 64.58908577 81.4186554 64.5990448 C80.21098322 64.60312033 79.00331104 64.60719585 77.75904274 64.61139488 C71.36783136 64.63227867 64.9766416 64.64657065 58.58540344 64.65592957 C51.9706365 64.66700175 45.35620525 64.70140481 38.74155712 64.74110126 C33.66729083 64.76719818 28.59310535 64.77561523 23.51877785 64.77921104 C21.07985986 64.78409455 18.6409459 64.79575823 16.20209312 64.81424904 C12.79248041 64.83849377 9.38374712 64.83770202 5.97407532 64.83073425 C4.96144623 64.84354431 3.94881714 64.85635437 2.90550232 64.86955261 C-3.84371177 64.81913869 -3.84371177 64.81913869 -7.18894958 62.68382263 C-8.88112668 59.82044503 -9.0629675 58.04307045 -9.06352234 54.72184753 C-9.07290329 53.59064987 -9.08228424 52.45945221 -9.09194946 51.29397583 C-9.08071548 50.07722672 -9.06948151 48.8604776 -9.0579071 47.6068573 C-9.05936234 46.35445755 -9.06081757 45.1020578 -9.06231689 43.81170654 C-9.06065673 41.16417048 -9.05116743 38.51807091 -9.02836609 35.87077332 C-8.99995157 32.4787515 -9.00272788 29.08762912 -9.0154562 25.69554043 C-9.02408374 22.45758799 -9.00896962 19.21978153 -8.9954071 15.9818573 C-8.99834274 14.76308395 -9.00127838 13.54431061 -9.00430298 12.28860474 C-8.9916188 11.16055923 -8.97893463 10.03251373 -8.96586609 8.87028503 C-8.9604631 7.87641281 -8.95506012 6.88254059 -8.94949341 5.85855103 C-8.11520853 0.48332912 -4.94672263 -0.01357746 0 0 Z " fill="#13BE6D" transform="translate(101.56181335449219,297.6392364501953)"/>
<path d="M0 0 C9.34957378 3.18318822 16.40423322 11.49162097 21 20 C24.13677681 26.8576431 23.80003985 33.32365992 21.5 40.4375 C19.0138572 46.6838232 15.1918675 51.79334148 11 57 C10.41418655 58.02968903 9.82837311 59.05937805 9.22480774 60.12026978 C7.29356805 62.40049494 6.23190268 62.95397903 3.26242638 63.54327011 C-0.40269183 63.74169884 -4.02442137 63.74116799 -7.69458008 63.68115234 C-9.10416593 63.67945907 -10.51375707 63.68041152 -11.92333984 63.68380737 C-15.74363505 63.68552745 -19.56279771 63.65027753 -23.3828299 63.60836363 C-27.37728763 63.57083056 -31.37177193 63.56732928 -35.36637878 63.56021118 C-42.92777145 63.54156976 -50.488643 63.49234275 -58.0498063 63.43211424 C-66.65911639 63.36502681 -75.26845149 63.33205457 -83.87795794 63.30194163 C-101.58560063 63.23924269 -119.2927584 63.13372179 -137 63 C-137.04570157 59.63155559 -137.07325274 56.26319198 -137.09765625 52.89453125 C-137.11729431 51.47146667 -137.11729431 51.47146667 -137.1373291 50.01965332 C-137.18686937 40.8982994 -135.59962496 34.02588381 -130 26.6875 C-120.583487 17.35696497 -111.14922061 16.30413914 -98.51757812 16.3125 C-96.6575257 16.33082725 -94.79749662 16.35168731 -92.9375 16.375 C-90.12415844 16.3990724 -87.31186711 16.41425042 -84.49842834 16.40542603 C-82.75995228 16.40085616 -81.02129207 16.41550684 -79.28318787 16.45175171 C-76.64950742 16.49556197 -76.64950742 16.49556197 -73 16 C-71.04727105 14.13009089 -71.04727105 14.13009089 -70 12 C-67.73828125 11.609375 -67.73828125 11.609375 -65.3125 11.75 C-64.50425781 11.78609375 -63.69601562 11.8221875 -62.86328125 11.859375 C-61.94095703 11.92898437 -61.94095703 11.92898437 -61 12 C-60.34 10.35 -59.68 8.7 -59 7 C-55.625 6.875 -55.625 6.875 -52 7 C-50 9 -50 9 -50 12 C-46.7 12 -43.4 12 -40 12 C-39.01 13.98 -39.01 13.98 -38 16 C-26.34868446 16.48659786 -16.67588161 16.74965339 -7.125 9.125 C-4.16526707 6.38217421 -2.05918045 3.45942315 0 0 Z " fill="#7A7978" transform="translate(323,17)"/>
<path d="M0 0 C59.4 0 118.8 0 180 0 C180 7.59 180 15.18 180 23 C120.6 23 61.2 23 0 23 C0 15.41 0 7.82 0 0 Z " fill="#71C1E8" transform="translate(166,216)"/>
<path d="M0 0 C4.65086705 1.26841829 7.09420659 3.89945845 10.25390625 7.34375 C12.95632521 9.90711832 15.19387855 10.89485372 18.875 11.375 C23.52405889 10.81711293 26.48625726 8.51374274 29.75 5.25 C30.1625 4.8375 30.575 4.425 31 4 C31.66 4 32.32 4 33 4 C38.47708895 16.35480752 42.8305411 28.26518244 38.375 41.6875 C33.80174832 52.85068032 25.96622659 59.66061994 14.9375 64.4375 C4.38162228 67.87638368 -7.38511239 67.43167873 -17.35546875 62.53515625 C-26.85520626 57.02053758 -34.30812678 49.76261099 -37.4375 38.875 C-38.53255004 31.33132193 -38.00816166 25.25803901 -36.1875 17.8125 C-36.02233887 17.13509766 -35.85717773 16.45769531 -35.68701172 15.75976562 C-34.58620577 11.53880131 -33.07872668 7.82986033 -31 4 C-27.55835531 5.52961986 -24.90848242 7.62729066 -22 10 C-19.13391871 11.43304064 -17.18699217 11.30644155 -14 11 C-8.74640587 8.1447858 -4.41764275 3.99157568 0 0 Z " fill="#EDBE1F" transform="translate(255,331)"/>
<path d="M0 0 C3 0.25 3 0.25 5 2.25 C5.19957128 4.73902302 5.27370304 7.11715291 5.26069641 9.60752869 C5.26452196 10.37482868 5.26834751 11.14212868 5.27228898 11.93268019 C5.28265209 14.51760736 5.27862061 17.10231378 5.2746582 19.68725586 C5.27900286 21.53487861 5.28418517 23.38249955 5.29014587 25.2301178 C5.30357378 30.25898623 5.30411034 35.28777968 5.30158257 40.31666255 C5.30051542 44.50923509 5.30538968 48.70179229 5.310188 52.89436156 C5.32129632 62.78236916 5.32171316 72.67033878 5.31567383 82.55834961 C5.30963187 92.7716948 5.32194768 102.98490231 5.3432439 113.19822401 C5.3608357 121.95578484 5.36686509 130.71330175 5.36360615 139.47087961 C5.36178926 144.70632674 5.36446974 149.94167566 5.37832069 155.17710686 C5.3908551 160.09940827 5.38899673 165.02149441 5.37590981 169.94379234 C5.37353486 171.7534365 5.37631135 173.56309559 5.38453293 175.37272263 C5.39492491 177.83723083 5.38696125 180.30100656 5.3742218 182.76548767 C5.38159609 183.48688319 5.38897037 184.2082787 5.39656812 184.95153469 C5.3666244 187.69229709 5.26409967 189.7859065 3.89303398 192.1952343 C1.02218314 193.7948226 -1.3899203 193.61817377 -4.6627655 193.61076355 C-5.68341495 193.61460846 -5.68341495 193.61460846 -6.72468358 193.61853105 C-9.00964761 193.62348105 -11.29395405 193.60695674 -13.57885742 193.59057617 C-15.21474695 193.58973016 -16.85063762 193.59020454 -18.48652649 193.59190369 C-22.93258739 193.59276607 -27.37840654 193.57510099 -31.82441115 193.55418181 C-36.46889131 193.53545554 -41.11337671 193.53366777 -45.75788879 193.53010559 C-54.55516874 193.5207732 -63.35233713 193.49614329 -72.1495679 193.46605712 C-82.1639415 193.43255023 -92.17832036 193.41603645 -102.19273603 193.40097082 C-122.79521967 193.36959476 -143.39760281 193.31681109 -164 193.25 C-164.495 188.3 -164.495 188.3 -165 183.25 C-112.2 183.25 -59.4 183.25 -5 183.25 C-5.02320313 170.20726562 -5.04640625 157.16453125 -5.0703125 143.7265625 C-5.08052585 135.48697838 -5.09023591 127.24739882 -5.09765625 119.0078125 C-5.10954076 105.91599976 -5.12353998 92.82421268 -5.15087891 79.73242188 C-5.17077694 70.19932835 -5.18370789 60.66625558 -5.18817699 51.13314188 C-5.19079047 46.08270918 -5.19695749 41.03233586 -5.21146011 35.98192215 C-5.22498743 31.23288475 -5.22923252 26.48393147 -5.22621536 21.73487663 C-5.22676771 19.98769995 -5.23077393 18.2405206 -5.23841095 16.49336052 C-5.24829646 14.11612507 -5.24599253 11.7392112 -5.24050903 9.36196899 C-5.24633472 8.66353304 -5.2521604 7.96509708 -5.25816262 7.24549639 C-5.22898918 2.59722455 -5.12584199 0.4271535 0 0 Z " fill="#FEFEFE" transform="translate(452,264.75)"/>
<path d="M0 0 C1.03699036 -0.0066568 2.07398071 -0.0133136 3.14239502 -0.02017212 C5.33449535 -0.03028431 7.52662637 -0.03498958 9.71875 -0.03466797 C13.05260744 -0.03902912 16.38512764 -0.07533197 19.71875 -0.11328125 C21.85416217 -0.11915228 23.98958059 -0.12311976 26.125 -0.125 C27.60670685 -0.14655655 27.60670685 -0.14655655 29.11834717 -0.16854858 C36.06178427 -0.12329782 42.60691726 0.94588022 47.91693115 5.78335571 C53.39058842 12.08448965 53.69255266 17.05095835 53.703125 25.0859375 C53.72761719 26.05015625 53.75210938 27.014375 53.77734375 28.0078125 C53.80565725 34.95405782 52.76478368 40.63254421 47.91577148 45.85791016 C42.71319855 50.47335104 39.24617173 51.3359375 32.328125 51.3359375 C31.998125 43.7459375 31.668125 36.1559375 31.328125 28.3359375 C29.018125 28.0059375 26.708125 27.6759375 24.328125 27.3359375 C22.64511831 29.01894419 23.10003423 31.15602477 23.01171875 33.46484375 C22.94887695 35.01655273 22.94887695 35.01655273 22.88476562 36.59960938 C22.84544922 37.68822266 22.80613281 38.77683594 22.765625 39.8984375 C22.72244141 40.99091797 22.67925781 42.08339844 22.63476562 43.20898438 C22.52830542 45.91780518 22.42767693 48.62685401 22.328125 51.3359375 C16.718125 51.3359375 11.108125 51.3359375 5.328125 51.3359375 C4.833125 39.4559375 4.833125 39.4559375 4.328125 27.3359375 C2.018125 27.3359375 -0.291875 27.3359375 -2.671875 27.3359375 C-4.35488169 29.01894419 -3.89996577 31.15602477 -3.98828125 33.46484375 C-4.03017578 34.49931641 -4.07207031 35.53378906 -4.11523438 36.59960938 C-4.15455078 37.68822266 -4.19386719 38.77683594 -4.234375 39.8984375 C-4.27755859 40.99091797 -4.32074219 42.08339844 -4.36523438 43.20898438 C-4.47169568 45.91783314 -4.57371016 48.62677742 -4.671875 51.3359375 C-11.31950503 51.61659739 -14.56745945 50.39500433 -19.671875 46.3359375 C-25.70484262 39.98544527 -26.05939096 33.89298805 -26.109375 25.5234375 C-26.14224609 24.56373047 -26.17511719 23.60402344 -26.20898438 22.61523438 C-26.25946653 15.89192942 -25.00007743 11.53505383 -20.671875 6.3359375 C-14.30118777 0.28378463 -8.40691736 0.01878783 0 0 Z " fill="#FCB49D" transform="translate(381.671875,201.6640625)"/>
<path d="M0 0 C1.03699036 -0.0066568 2.07398071 -0.0133136 3.14239502 -0.02017212 C5.33449535 -0.03028431 7.52662637 -0.03498958 9.71875 -0.03466797 C13.05260744 -0.03902912 16.38512764 -0.07533197 19.71875 -0.11328125 C21.85416217 -0.11915228 23.98958059 -0.12311976 26.125 -0.125 C27.60670685 -0.14655655 27.60670685 -0.14655655 29.11834717 -0.16854858 C36.06178427 -0.12329782 42.60691726 0.94588022 47.91693115 5.78335571 C53.39058842 12.08448965 53.69255266 17.05095835 53.703125 25.0859375 C53.72761719 26.05015625 53.75210938 27.014375 53.77734375 28.0078125 C53.80565725 34.95405782 52.76478368 40.63254421 47.91577148 45.85791016 C42.86238764 50.34099856 38.91946043 51.43553185 32.328125 51.3359375 C32.29054077 50.2986853 32.29054077 50.2986853 32.25219727 49.24047852 C32.13660339 46.12625884 32.01371258 43.01236961 31.890625 39.8984375 C31.85130859 38.80982422 31.81199219 37.72121094 31.77148438 36.59960938 C31.72958984 35.56513672 31.68769531 34.53066406 31.64453125 33.46484375 C31.58954468 32.02733765 31.58954468 32.02733765 31.53344727 30.56079102 C31.56978076 28.36454825 31.56978076 28.36454825 30.328125 27.3359375 C28.018125 27.3359375 25.708125 27.3359375 23.328125 27.3359375 C22.998125 35.2559375 22.668125 43.1759375 22.328125 51.3359375 C16.718125 51.3359375 11.108125 51.3359375 5.328125 51.3359375 C4.833125 39.9509375 4.833125 39.9509375 4.328125 28.3359375 C2.018125 28.0059375 -0.291875 27.6759375 -2.671875 27.3359375 C-4.35488169 29.01894419 -3.89996577 31.15602477 -3.98828125 33.46484375 C-4.03017578 34.49931641 -4.07207031 35.53378906 -4.11523438 36.59960938 C-4.15455078 37.68822266 -4.19386719 38.77683594 -4.234375 39.8984375 C-4.27755859 40.99091797 -4.32074219 42.08339844 -4.36523438 43.20898438 C-4.47169568 45.91783314 -4.57371016 48.62677742 -4.671875 51.3359375 C-6.10362771 51.21440742 -7.53446783 51.08209747 -8.96484375 50.9453125 C-9.76172607 50.87280273 -10.5586084 50.80029297 -11.37963867 50.72558594 C-16.00160829 49.9399151 -18.83654017 47.24088357 -21.921875 43.8984375 C-26.00191897 37.92408739 -26.06744675 32.54409028 -26.109375 25.5234375 C-26.14224609 24.56373047 -26.17511719 23.60402344 -26.20898438 22.61523438 C-26.25946653 15.89192942 -25.00007743 11.53505383 -20.671875 6.3359375 C-14.30118777 0.28378463 -8.40691736 0.01878783 0 0 Z " fill="#FCB49D" transform="translate(102.671875,201.6640625)"/>
<path d="M0 0 C0.66599716 0.14129333 1.33199432 0.28258667 2.01817322 0.42816162 C3.34516991 0.70300385 3.34516991 0.70300385 4.69897461 0.98339844 C5.57122177 1.16594177 6.44346893 1.34848511 7.34214783 1.53656006 C11.4253917 2.24854033 15.42816412 2.29090027 19.5625 2.25 C20.74102539 2.26160156 20.74102539 2.26160156 21.94335938 2.2734375 C22.72646484 2.27085937 23.50957031 2.26828125 24.31640625 2.265625 C25.00162354 2.26336914 25.68684082 2.26111328 26.39282227 2.25878906 C30.33754226 1.86723525 34.14746914 0.9143134 38 0 C38.39270811 7.34544109 38.78398601 14.69095692 39.17345428 22.03657055 C39.35435763 25.44767654 39.5357476 28.85875518 39.71826172 32.26977539 C39.92821948 36.19409603 40.13603901 40.11852852 40.34375 44.04296875 C40.44218201 45.87446724 40.44218201 45.87446724 40.54260254 47.7429657 C40.60266479 48.8837709 40.66272705 50.02457611 40.72460938 51.19995117 C40.77790405 52.20144699 40.83119873 53.20294281 40.8861084 54.23478699 C40.99263888 56.8212768 41 59.41131727 41 62 C26.48 62 11.96 62 -3 62 C-3 52.99002424 -2.96163413 44.20511847 -2.34375 35.25390625 C-2.27716187 34.23191635 -2.21057373 33.20992645 -2.14196777 32.15696716 C-1.93253834 28.95849076 -1.7164122 25.7605107 -1.5 22.5625 C-1.35502068 20.36656599 -1.21048614 18.17060258 -1.06640625 15.97460938 C-0.71605916 10.64938998 -0.36024424 5.32455855 0 0 Z " fill="#7A7876" transform="translate(237,404)"/>
<path d="M0 0 C1.41972006 2.4845101 2.20282452 4.32046178 3 7 C5.37375764 14.16336595 5.37375764 14.16336595 10 20 C11.88204429 20.82391105 13.77978581 21.61240791 15.6875 22.375 C18.6171875 23.609375 18.6171875 23.609375 21 25 C22.3125 28.625 22.3125 28.625 22 32 C19.51610698 35.72583953 17.44687672 36.21187329 13.38671875 37.7421875 C7.47335247 40.85856056 5.30068857 44.97158689 3.375 51.1875 C1.31467607 57.79021595 1.31467607 57.79021595 -2 60 C-5.6875 59.625 -5.6875 59.625 -9 59 C-9.3403125 57.91460937 -9.680625 56.82921875 -10.03125 55.7109375 C-13.29754641 45.27160906 -13.29754641 45.27160906 -21.0390625 37.96484375 C-21.68617188 37.64644531 -22.33328125 37.32804687 -23 37 C-24.11375 36.4225 -25.2275 35.845 -26.375 35.25 C-27.674375 34.63125 -27.674375 34.63125 -29 34 C-31 32 -31 32 -31.4375 29.625 C-31 27 -31 27 -29 24.9375 C-26.06831118 23.04411764 -23.16864623 21.58665137 -19.96484375 20.22265625 C-14.8463703 17.03760219 -13.1652761 12.2709805 -11.375 6.75 C-10.63627485 4.48206674 -9.85663168 2.22607688 -9 0 C-5.70635342 -1.64682329 -3.46712768 -0.97322882 0 0 Z " fill="#010000" transform="translate(428,81)"/>
<path d="M0 0 C3.16262092 2.37597917 3.81867552 5.09666832 4.875 8.8125 C6.89818019 15.07831925 8.50477909 19.02876167 14.47265625 22.39453125 C16.2292478 23.27156329 18.00238404 24.11651456 19.79296875 24.921875 C22 26 22 26 24 28 C24.4375 30.375 24.4375 30.375 24 33 C20.81693239 36.28253847 17.11128935 38.01202533 12.96484375 39.77734375 C7.84819722 42.96126097 6.10157275 47.80921434 4.25 53.3125 C4.02957031 53.95767578 3.80914062 54.60285156 3.58203125 55.26757812 C3.04557015 56.84197484 2.52148643 58.42058004 2 60 C-4.625 61.25 -4.625 61.25 -8 59 C-9.02734375 56.390625 -9.02734375 56.390625 -9.9375 53.25 C-11.99476022 46.59294216 -11.99476022 46.59294216 -16 41 C-18.04264431 39.98005988 -20.10800662 39.0050396 -22.1875 38.0625 C-27.83227189 35.4498163 -27.83227189 35.4498163 -29.375 31.3125 C-29 28 -29 28 -27 25 C-24.79296875 24.078125 -24.79296875 24.078125 -22.1875 23.25 C-16.92103692 21.21919122 -14.36079232 19.13018331 -12 14 C-10.89693167 10.87863634 -9.89534729 7.7592557 -8.9921875 4.57421875 C-7.26914333 0.103801 -4.43663015 -0.55457877 0 0 Z " fill="#010000" transform="translate(91,80)"/>
<path d="M0 0 C1.47947774 0.00276538 1.47947774 0.00276538 2.98884392 0.00558662 C4.68421288 0.00146263 4.68421288 0.00146263 6.41383171 -0.00274467 C7.65964012 0.00444588 8.90544853 0.01163643 10.18900871 0.01904488 C12.14991447 0.0186068 12.14991447 0.0186068 14.15043449 0.01815987 C17.74116525 0.01758464 21.33176314 0.02936626 24.92246294 0.04330778 C28.67275289 0.05578697 32.42304569 0.05698341 36.1733532 0.0593586 C43.2777591 0.06558166 50.38210365 0.0820036 57.4864825 0.10205758 C65.57342806 0.12439093 73.6603765 0.13540354 81.74734521 0.14544845 C98.38532498 0.16636915 115.02324301 0.20156111 131.66117668 0.24609566 C131.33117668 3.54609566 131.00117668 6.84609566 130.66117668 10.24609566 C113.35468112 10.29276898 96.04820513 10.32806154 78.74166107 10.34972 C70.70634803 10.36004266 62.67107404 10.37412183 54.63578606 10.39697456 C47.63410268 10.41687823 40.63244758 10.42980489 33.63073671 10.43427265 C29.92168706 10.43688517 26.21271831 10.44304613 22.50369453 10.45755577 C18.36816343 10.47360341 14.23277395 10.4740773 10.09721184 10.47314644 C8.86075417 10.48033699 7.62429649 10.48752754 6.35037041 10.49493599 C5.22853859 10.49218666 4.10670677 10.48943733 2.95088005 10.48660469 C1.9719359 10.48844828 0.99299175 10.49029186 -0.01561737 10.49219131 C-2.33882332 10.24609566 -2.33882332 10.24609566 -4.33882332 8.24609566 C-4.58882332 5.24609566 -4.58882332 5.24609566 -4.33882332 2.24609566 C-2.33882332 0.24609566 -2.33882332 0.24609566 0 0 Z " fill="#FEFEFE" transform="translate(93.33882331848145,447.75390434265137)"/>
<path d="M0 0 C11.39084441 -1.23329443 11.39084441 -1.23329443 15.140625 1.640625 C16.25788427 3.05025118 17.33785951 4.49021976 18.37890625 5.95703125 C21.55797979 9.96342995 26.2764898 11.4254966 31 13 C32.61342997 13.10681996 34.23079847 13.15862601 35.84765625 13.17700195 C36.8329834 13.18983719 37.81831055 13.20267242 38.83349609 13.21589661 C40.43185303 13.22697701 40.43185303 13.22697701 42.0625 13.23828125 C43.71499756 13.25038887 43.71499756 13.25038887 45.40087891 13.26274109 C47.73777697 13.27658287 50.07469526 13.2873046 52.41162109 13.29516602 C55.9584081 13.31229909 59.50424348 13.35617623 63.05078125 13.40039062 C65.325514 13.41052492 67.60025466 13.41903871 69.875 13.42578125 C71.44906616 13.45204338 71.44906616 13.45204338 73.05493164 13.47883606 C82.84621763 13.45048988 91.35087679 11.20224805 98.66015625 4.46484375 C100.22204766 2.83187925 100.22204766 2.83187925 102 0 C105.0390625 -0.29296875 105.0390625 -0.29296875 108.625 -0.1875 C109.81351562 -0.16042969 111.00203125 -0.13335937 112.2265625 -0.10546875 C113.14179688 -0.07066406 114.05703125 -0.03585938 115 0 C110.11719576 10.9374815 103.30778538 18.02525599 92.19610596 22.77032471 C85.60154687 25.24870166 79.46981451 25.45188952 72.4765625 25.43359375 C71.29460297 25.4388356 70.11264343 25.44407745 68.89486694 25.44947815 C66.40550519 25.45587471 63.91611311 25.4545922 61.42675781 25.44604492 C57.64332571 25.43754119 53.86140812 25.46632278 50.078125 25.49804688 C47.64843795 25.49965941 45.21874825 25.49908035 42.7890625 25.49609375 C41.67101227 25.50732773 40.55296204 25.51856171 39.40103149 25.53013611 C27.32973886 25.42442875 16.78447683 21.48089129 7.9921875 13.08203125 C4.22917537 9.01199512 1.84821789 5.21849756 0 0 Z " fill="#AEAEAE" transform="translate(338,249)"/>
<path d="M0 0 C11.43110155 -1.2376531 11.43110155 -1.2376531 15.03515625 1.60546875 C16.0869898 2.98293136 17.11043158 4.38258837 18.10276794 5.80351257 C22.05986723 10.38477547 28.0624267 12.52991156 33.94503784 13.47128296 C37.05623444 13.67137293 40.12860748 13.71966481 43.24609375 13.69921875 C44.37845963 13.70637405 45.5108255 13.71352936 46.67750549 13.72090149 C49.05656149 13.72863677 51.4356892 13.72375578 53.81469727 13.70678711 C57.4253723 13.68756457 61.03219103 13.72701482 64.64257812 13.77148438 C81.38300599 14.20904625 81.38300599 14.20904625 96 7 C97.66135967 5.04666156 97.66135967 5.04666156 98.9375 3.125 C100.22265625 1.34765625 100.22265625 1.34765625 102 0 C106.39208865 -0.59723949 110.5963573 -0.41161645 115 0 C109.67011499 12.207156 103.25644061 17.78414978 91 23 C90.20110352 23.34909424 89.40220703 23.69818848 88.57910156 24.05786133 C83.31849071 25.44262922 78.18813262 25.32533616 72.76953125 25.3359375 C70.99022469 25.3459227 70.99022469 25.3459227 69.17497253 25.35610962 C66.66768947 25.36621984 64.16037959 25.37092714 61.65307617 25.37060547 C57.84312808 25.37496495 54.03435168 25.41126673 50.22460938 25.44921875 C47.78125393 25.45509015 45.33789302 25.45905738 42.89453125 25.4609375 C41.20333916 25.48249405 41.20333916 25.48249405 39.47798157 25.50448608 C27.36582583 25.43553782 16.81527849 21.51031467 7.9921875 13.08203125 C4.22917537 9.01199512 1.84821789 5.21849756 0 0 Z " fill="#AEAEAE" transform="translate(59,249)"/>
<path d="M0 0 C0.66 0 1.32 0 2 0 C3.55297852 2.24047852 3.55297852 2.24047852 5.37890625 5.37890625 C5.70737549 5.93822845 6.03584473 6.49755066 6.37426758 7.07382202 C7.44423117 8.89927092 8.50365578 10.73058248 9.5625 12.5625 C10.64914817 14.42836944 11.73766606 16.29313858 12.82640076 18.15779114 C13.54553991 19.38983608 14.26377343 20.62241009 14.98109436 21.85551453 C16.96939907 25.2667732 18.99666153 28.64676461 21.09375 31.9921875 C21.52099365 32.67724365 21.9482373 33.3622998 22.38842773 34.06811523 C23.48194668 35.80924116 24.58625662 37.5435769 25.69140625 39.27734375 C27 42 27 42 26.90625 44.17578125 C25.85101643 46.29989364 24.66695166 47.63093887 22.9375 49.25 C22.11572266 50.03117187 22.11572266 50.03117187 21.27734375 50.828125 C20.85582031 51.21484375 20.43429687 51.6015625 20 52 C16.55488672 50.49767891 14.12997125 48.47594341 11.375 45.9375 C7.22095942 42.121579 4.6330504 40.27289103 -1.26953125 40.234375 C-7.33830404 41.93606236 -11.74625423 47.56631574 -16 52 C-19.7840597 50.22546237 -22.33164025 48.27827055 -25 45 C-24.67474689 41.43162248 -23.56014323 38.86424656 -21.69921875 35.83984375 C-21.22210449 35.05512695 -20.74499023 34.27041016 -20.25341797 33.46191406 C-19.73666504 32.62885742 -19.21991211 31.79580078 -18.6875 30.9375 C-17.59976561 29.16045903 -16.51254183 27.38310543 -15.42578125 25.60546875 C-14.8632666 24.68942871 -14.30075195 23.77338867 -13.72119141 22.82958984 C-11.98856161 19.98119561 -10.29193506 17.114217 -8.60546875 14.23828125 C-7.79299683 12.85878296 -7.79299683 12.85878296 -6.96411133 11.45141602 C-5.91599694 9.66966987 -4.87274851 7.88505113 -3.8347168 6.09741211 C-3.36074463 5.29698486 -2.88677246 4.49655762 -2.3984375 3.671875 C-1.98255371 2.9612793 -1.56666992 2.25068359 -1.13818359 1.51855469 C-0.76258301 1.01743164 -0.38698242 0.51630859 0 0 Z " fill="#F75B3B" transform="translate(255,281)"/>
<path d="M0 0 C1.11375 0.268125 2.2275 0.53625 3.375 0.8125 C4.97419459 4.01088918 4.53801759 7.48303358 4.54296875 10.99609375 C4.54796135 12.21305687 4.54796135 12.21305687 4.55305481 13.4546051 C4.5581213 15.17196078 4.56046322 16.88932631 4.56030273 18.60668945 C4.56248837 21.23600464 4.58064436 23.86489976 4.59960938 26.49414062 C4.6025435 28.1614569 4.60452817 29.82877516 4.60546875 31.49609375 C4.61265427 32.28366562 4.61983978 33.07123749 4.62724304 33.88267517 C4.61113717 37.7255469 4.55766282 39.53850577 2.375 42.8125 C-0.39523573 43.10937841 -2.94232564 43.21151082 -5.71484375 43.18481445 C-6.55073029 43.18846512 -7.38661682 43.19211578 -8.24783325 43.19587708 C-11.01959349 43.20400401 -13.79077303 43.19035487 -16.5625 43.17578125 C-18.48299153 43.1752629 -20.4034836 43.17577963 -22.32397461 43.17729187 C-26.35245668 43.17720205 -30.38073903 43.16675285 -34.40917969 43.14868164 C-39.58131803 43.12599415 -44.75316434 43.12544933 -49.92533875 43.13219929 C-53.89207571 43.13553565 -57.8587457 43.12891547 -61.82546997 43.11907005 C-63.73291677 43.11521201 -65.640371 43.11407233 -67.54782104 43.1156559 C-70.21041134 43.11602543 -72.8726227 43.10343796 -75.53515625 43.0871582 C-76.72590256 43.09087433 -76.72590256 43.09087433 -77.94070435 43.09466553 C-83.39625925 43.04124075 -83.39625925 43.04124075 -85.625 40.8125 C-85.97169238 38.10829941 -86.06644045 36.49359277 -84.56278992 34.17362976 C-81.65030161 32.12785871 -78.73681951 32.41907953 -75.30786133 32.47192383 C-74.56615189 32.47148575 -73.82444244 32.47104767 -73.06025696 32.47059631 C-70.60891384 32.47268617 -68.15825487 32.49602581 -65.70703125 32.51953125 C-64.00738397 32.52512652 -62.30773185 32.52939694 -60.608078 32.53239441 C-56.13468059 32.54384866 -51.66157541 32.57332073 -47.18829346 32.60650635 C-42.62361606 32.63719479 -38.05889145 32.65089712 -33.49414062 32.66601562 C-24.53763203 32.69818995 -15.58134031 32.74939325 -6.625 32.8125 C-6.64071045 31.91942139 -6.6564209 31.02634277 -6.67260742 30.10620117 C-6.72375439 26.79071244 -6.76135812 23.47564325 -6.78979492 20.15991211 C-6.80487589 18.72527448 -6.8253438 17.29068292 -6.85131836 15.85620117 C-6.88773437 13.79334141 -6.90473243 11.73109142 -6.91796875 9.66796875 C-6.9336792 8.42684326 -6.94938965 7.18571777 -6.96557617 5.90698242 C-6.625 2.8125 -6.625 2.8125 -5.33325195 0.87231445 C-3.625 -0.1875 -3.625 -0.1875 0 0 Z " fill="#70FBB6" transform="translate(404.625,308.1875)"/>
<path d="M0 0 C32.01 0.33 64.02 0.66 97 1 C87.5133258 10.4866742 87.5133258 10.4866742 79.63037109 10.59692383 C78.90603882 10.61196457 78.18170654 10.62700531 77.4354248 10.64250183 C75.04784388 10.68548404 72.66137414 10.69826922 70.2734375 10.70703125 C68.60299275 10.72243924 66.93255203 10.73828997 65.26211548 10.75456238 C61.7600999 10.78300594 58.25847268 10.79443108 54.75634766 10.79614258 C50.29356662 10.8013083 45.83386876 10.86615297 41.37189293 10.94643116 C37.91940256 10.99873344 34.46763952 11.00970378 31.01478958 11.00964928 C29.37143153 11.01616767 27.72805808 11.03724383 26.08509445 11.07383156 C15.81506721 11.28287244 9.49917862 10.30796402 1.79019165 3.03056335 C0 1 0 1 0 0 Z " fill="#E28A79" transform="translate(207,196)"/>
<path d="M0 0 C1.04659538 -0.0076664 1.04659538 -0.0076664 2.11433411 -0.01548767 C4.42665118 -0.02941672 6.73867129 -0.02842443 9.05102539 -0.02612305 C10.65523897 -0.03000828 12.25945152 -0.03434259 13.86366272 -0.03910828 C17.22880383 -0.04657768 20.59384005 -0.04627411 23.95898438 -0.04101562 C28.27465931 -0.03522114 32.58990505 -0.05214771 36.905509 -0.0753603 C40.21947242 -0.09008184 43.53333213 -0.09097149 46.84732246 -0.08785057 C48.43856214 -0.08836462 50.02980749 -0.09361801 51.62101555 -0.10366249 C53.84528472 -0.11597893 56.06871336 -0.10926485 58.29296875 -0.09765625 C59.55934677 -0.09828568 60.82572479 -0.0989151 62.13047791 -0.0995636 C65.21118164 0.2746582 65.21118164 0.2746582 67.15919495 1.60261536 C68.21118164 3.2746582 68.21118164 3.2746582 67.96118164 6.3996582 C67.21118164 9.2746582 67.21118164 9.2746582 66.21118164 10.2746582 C63.9216207 10.38492459 61.62860912 10.42381027 59.33642578 10.43579102 C58.61772812 10.44075592 57.89903046 10.44572083 57.15855408 10.45083618 C54.7711391 10.46549148 52.38379054 10.47226501 49.99633789 10.4777832 C48.34346005 10.48353146 46.69058224 10.48928923 45.03770447 10.49505615 C41.56826465 10.50557544 38.09884807 10.51141216 34.62939453 10.51489258 C30.17574208 10.52038225 25.7223946 10.54441627 21.26883793 10.57286453 C17.85370475 10.59145345 14.43864562 10.59669448 11.02346611 10.59822845 C9.38115202 10.60126353 7.73883949 10.60932065 6.09657478 10.62241364 C3.80258853 10.63939818 1.50935499 10.63761311 -0.78466797 10.63110352 C-2.09181259 10.63474915 -3.39895721 10.63839478 -4.74571228 10.64215088 C-5.74993729 10.5208783 -6.75416229 10.39960571 -7.78881836 10.2746582 C-9.78881836 7.2746582 -9.78881836 7.2746582 -9.53881836 4.7121582 C-7.91134142 -0.57714186 -4.97096859 0.01809696 0 0 Z " fill="#080808" transform="translate(339.788818359375,427.725341796875)"/>
<path d="M0 0 C1.04659538 -0.0076664 1.04659538 -0.0076664 2.11433411 -0.01548767 C4.42665118 -0.02941672 6.73867129 -0.02842443 9.05102539 -0.02612305 C10.65523897 -0.03000828 12.25945152 -0.03434259 13.86366272 -0.03910828 C17.22880383 -0.04657768 20.59384005 -0.04627411 23.95898438 -0.04101562 C28.27465931 -0.03522114 32.58990505 -0.05214771 36.905509 -0.0753603 C40.21947242 -0.09008184 43.53333213 -0.09097149 46.84732246 -0.08785057 C48.43856214 -0.08836462 50.02980749 -0.09361801 51.62101555 -0.10366249 C53.84528472 -0.11597893 56.06871336 -0.10926485 58.29296875 -0.09765625 C59.55934677 -0.09828568 60.82572479 -0.0989151 62.13047791 -0.0995636 C65.21118164 0.2746582 65.21118164 0.2746582 67.15919495 1.60261536 C68.21118164 3.2746582 68.21118164 3.2746582 67.96118164 6.3996582 C67.21118164 9.2746582 67.21118164 9.2746582 66.21118164 10.2746582 C63.9216207 10.38492459 61.62860912 10.42381027 59.33642578 10.43579102 C58.61772812 10.44075592 57.89903046 10.44572083 57.15855408 10.45083618 C54.7711391 10.46549148 52.38379054 10.47226501 49.99633789 10.4777832 C48.34346005 10.48353146 46.69058224 10.48928923 45.03770447 10.49505615 C41.56826465 10.50557544 38.09884807 10.51141216 34.62939453 10.51489258 C30.17574208 10.52038225 25.7223946 10.54441627 21.26883793 10.57286453 C17.85370475 10.59145345 14.43864562 10.59669448 11.02346611 10.59822845 C9.38115202 10.60126353 7.73883949 10.60932065 6.09657478 10.62241364 C3.80258853 10.63939818 1.50935499 10.63761311 -0.78466797 10.63110352 C-2.09181259 10.63474915 -3.39895721 10.63839478 -4.74571228 10.64215088 C-5.74993729 10.5208783 -6.75416229 10.39960571 -7.78881836 10.2746582 C-9.78881836 7.2746582 -9.78881836 7.2746582 -9.53881836 4.7121582 C-7.91134142 -0.57714186 -4.97096859 0.01809696 0 0 Z " fill="#070707" transform="translate(339.788818359375,406.725341796875)"/>
<path d="M0 0 C1.04659538 -0.0076664 1.04659538 -0.0076664 2.11433411 -0.01548767 C4.42665118 -0.02941672 6.73867129 -0.02842443 9.05102539 -0.02612305 C10.65523897 -0.03000828 12.25945152 -0.03434259 13.86366272 -0.03910828 C17.22880383 -0.04657768 20.59384005 -0.04627411 23.95898438 -0.04101562 C28.27465931 -0.03522114 32.58990505 -0.05214771 36.905509 -0.0753603 C40.21947242 -0.09008184 43.53333213 -0.09097149 46.84732246 -0.08785057 C48.43856214 -0.08836462 50.02980749 -0.09361801 51.62101555 -0.10366249 C53.84528472 -0.11597893 56.06871336 -0.10926485 58.29296875 -0.09765625 C59.55934677 -0.09828568 60.82572479 -0.0989151 62.13047791 -0.0995636 C65.21118164 0.2746582 65.21118164 0.2746582 67.15919495 1.60261536 C68.21118164 3.2746582 68.21118164 3.2746582 67.96118164 6.3996582 C67.21118164 9.2746582 67.21118164 9.2746582 66.21118164 10.2746582 C63.9216207 10.38492459 61.62860912 10.42381027 59.33642578 10.43579102 C58.61772812 10.44075592 57.89903046 10.44572083 57.15855408 10.45083618 C54.7711391 10.46549148 52.38379054 10.47226501 49.99633789 10.4777832 C48.34346005 10.48353146 46.69058224 10.48928923 45.03770447 10.49505615 C41.56826465 10.50557544 38.09884807 10.51141216 34.62939453 10.51489258 C30.17574208 10.52038225 25.7223946 10.54441627 21.26883793 10.57286453 C17.85370475 10.59145345 14.43864562 10.59669448 11.02346611 10.59822845 C9.38115202 10.60126353 7.73883949 10.60932065 6.09657478 10.62241364 C3.80258853 10.63939818 1.50935499 10.63761311 -0.78466797 10.63110352 C-2.09181259 10.63474915 -3.39895721 10.63839478 -4.74571228 10.64215088 C-5.74993729 10.5208783 -6.75416229 10.39960571 -7.78881836 10.2746582 C-9.78881836 7.2746582 -9.78881836 7.2746582 -9.53881836 4.7121582 C-7.91134142 -0.57714186 -4.97096859 0.01809696 0 0 Z " fill="#040404" transform="translate(339.788818359375,385.725341796875)"/>
<path d="M0 0 C1.04659538 -0.0076664 1.04659538 -0.0076664 2.11433411 -0.01548767 C4.42665118 -0.02941672 6.73867129 -0.02842443 9.05102539 -0.02612305 C10.65523897 -0.03000828 12.25945152 -0.03434259 13.86366272 -0.03910828 C17.22880383 -0.04657768 20.59384005 -0.04627411 23.95898438 -0.04101562 C28.27465931 -0.03522114 32.58990505 -0.05214771 36.905509 -0.0753603 C40.21947242 -0.09008184 43.53333213 -0.09097149 46.84732246 -0.08785057 C48.43856214 -0.08836462 50.02980749 -0.09361801 51.62101555 -0.10366249 C53.84528472 -0.11597893 56.06871336 -0.10926485 58.29296875 -0.09765625 C59.55934677 -0.09828568 60.82572479 -0.0989151 62.13047791 -0.0995636 C65.21118164 0.2746582 65.21118164 0.2746582 67.1240387 1.63777161 C68.66184588 3.95321317 68.55953377 5.55751157 68.21118164 8.2746582 C66.21118164 10.2746582 66.21118164 10.2746582 63.21276855 10.52189636 C61.28322327 10.51975883 61.28322327 10.51975883 59.31469727 10.51757812 C58.60560715 10.51947647 57.89651703 10.52137482 57.16593933 10.52333069 C54.81632516 10.52704273 52.46701846 10.51632826 50.11743164 10.50512695 C48.48840369 10.50393526 46.85937505 10.50348197 45.23034668 10.5037384 C41.81392118 10.50217279 38.39760034 10.49387732 34.98120117 10.48046875 C30.59606353 10.4634788 26.21104102 10.45965438 21.82587433 10.46041393 C18.46135351 10.46014234 15.096858 10.45466292 11.73234558 10.44741249 C10.1151702 10.4442243 8.49799195 10.44225807 6.8808136 10.44151878 C4.62304779 10.43935681 2.36540542 10.43061568 0.10766602 10.41992188 C-1.17869751 10.41611008 -2.46506104 10.41229828 -3.79040527 10.40837097 C-6.78881836 10.2746582 -6.78881836 10.2746582 -8.78881836 9.2746582 C-8.91381836 5.8996582 -8.91381836 5.8996582 -8.78881836 2.2746582 C-5.93605335 -0.57810681 -3.99607029 0.01454782 0 0 Z " fill="#080808" transform="translate(112.788818359375,427.725341796875)"/>
<path d="M0 0 C0.69773026 -0.00350464 1.39546051 -0.00700928 2.11433411 -0.01062012 C4.426665 -0.01944084 6.73869124 -0.01358659 9.05102539 -0.00683594 C10.65523843 -0.00818265 12.25945108 -0.01012323 13.86366272 -0.01263428 C17.22880939 -0.01558612 20.59385001 -0.01128657 23.95898438 -0.00195312 C28.27457864 0.00943233 32.58992391 0.00288816 36.905509 -0.00909805 C40.21946592 -0.01632288 43.53336376 -0.01402571 46.84732246 -0.00884247 C48.43855379 -0.00750722 50.02979046 -0.00914934 51.62101555 -0.01380157 C53.84514456 -0.01887606 56.06886983 -0.01114347 58.29296875 0 C60.19253578 0.00238678 60.19253578 0.00238678 62.13047791 0.00482178 C65.21118164 0.25878906 65.21118164 0.25878906 68.21118164 2.25878906 C68.52368164 5.25878906 68.52368164 5.25878906 68.21118164 8.25878906 C65.33932898 11.13064173 63.33626519 10.51260359 59.31469727 10.51757812 C58.60560715 10.52108276 57.89651703 10.5245874 57.16593933 10.52819824 C54.81633789 10.53701827 52.46703627 10.53116559 50.11743164 10.52441406 C48.48840273 10.52576064 46.85937421 10.52770111 45.23034668 10.5302124 C41.81392598 10.53316403 38.39760975 10.52886483 34.98120117 10.51953125 C30.59600763 10.50813664 26.21105888 10.51469592 21.82587433 10.52667618 C18.46134589 10.53389377 15.09687575 10.53160733 11.73234558 10.52642059 C10.11516796 10.52508381 8.49798509 10.5267328 6.8808136 10.5313797 C4.62295455 10.53644334 2.3654952 10.52873732 0.10766602 10.51757812 C-1.82187927 10.51519135 -1.82187927 10.51519135 -3.79040527 10.51275635 C-6.78881836 10.25878906 -6.78881836 10.25878906 -8.78881836 8.25878906 C-9.03881836 5.25878906 -9.03881836 5.25878906 -8.78881836 2.25878906 C-5.93455145 -0.59547784 -3.99764238 0.00502614 0 0 Z " fill="#060606" transform="translate(112.788818359375,406.7412109375)"/>
<path d="M0 0 C0.69773026 -0.00350464 1.39546051 -0.00700928 2.11433411 -0.01062012 C4.426665 -0.01944084 6.73869124 -0.01358659 9.05102539 -0.00683594 C10.65523843 -0.00818265 12.25945108 -0.01012323 13.86366272 -0.01263428 C17.22880939 -0.01558612 20.59385001 -0.01128657 23.95898438 -0.00195312 C28.27457864 0.00943233 32.58992391 0.00288816 36.905509 -0.00909805 C40.21946592 -0.01632288 43.53336376 -0.01402571 46.84732246 -0.00884247 C48.43855379 -0.00750722 50.02979046 -0.00914934 51.62101555 -0.01380157 C53.84514456 -0.01887606 56.06886983 -0.01114347 58.29296875 0 C60.19253578 0.00238678 60.19253578 0.00238678 62.13047791 0.00482178 C65.21118164 0.25878906 65.21118164 0.25878906 68.21118164 2.25878906 C68.52368164 5.25878906 68.52368164 5.25878906 68.21118164 8.25878906 C65.33932898 11.13064173 63.33626519 10.51260359 59.31469727 10.51757812 C58.60560715 10.52108276 57.89651703 10.5245874 57.16593933 10.52819824 C54.81633789 10.53701827 52.46703627 10.53116559 50.11743164 10.52441406 C48.48840273 10.52576064 46.85937421 10.52770111 45.23034668 10.5302124 C41.81392598 10.53316403 38.39760975 10.52886483 34.98120117 10.51953125 C30.59600763 10.50813664 26.21105888 10.51469592 21.82587433 10.52667618 C18.46134589 10.53389377 15.09687575 10.53160733 11.73234558 10.52642059 C10.11516796 10.52508381 8.49798509 10.5267328 6.8808136 10.5313797 C4.62295455 10.53644334 2.3654952 10.52873732 0.10766602 10.51757812 C-1.82187927 10.51519135 -1.82187927 10.51519135 -3.79040527 10.51275635 C-6.78881836 10.25878906 -6.78881836 10.25878906 -8.78881836 8.25878906 C-9.03881836 5.25878906 -9.03881836 5.25878906 -8.78881836 2.25878906 C-5.93455145 -0.59547784 -3.99764238 0.00502614 0 0 Z " fill="#030303" transform="translate(112.788818359375,385.7412109375)"/>
<path d="M0 0 C3.63 0 7.26 0 11 0 C11 7.26 11 14.52 11 22 C63.14 22 115.28 22 169 22 C169 14.74 169 7.48 169 0 C172.63 0 176.26 0 180 0 C180 7.59 180 15.18 180 23 C120.6 23 61.2 23 0 23 C0 15.41 0 7.82 0 0 Z " fill="#4993B2" transform="translate(166,216)"/>
<path d="M0 0 C2.5859375 0.421875 2.5859375 0.421875 4.359375 2.46875 C4.88789063 3.36078125 5.41640625 4.2528125 5.9609375 5.171875 C9.11924837 9.98778746 11.19242676 12.3401691 16.5859375 14.421875 C22.44443929 15.07281964 27.3921095 14.32021652 32.5859375 11.421875 C35.11098699 8.82668525 36.69413925 6.23688491 38.5234375 3.109375 C40.5859375 0.421875 40.5859375 0.421875 43.1484375 -0.140625 C45.5859375 0.421875 45.5859375 0.421875 47.4609375 1.546875 C48.5859375 3.421875 48.5859375 3.421875 48.6484375 6.109375 C46.34161083 13.30124638 41.0911369 19.06278877 34.4375 22.546875 C27.4225971 25.7334555 20.6968609 26.81952234 13.171875 24.76171875 C6.1460317 21.97311084 0.09450444 17.19625762 -3.9765625 10.796875 C-5.47832782 7.27099121 -5.81975899 5.93611623 -4.4140625 2.421875 C-2.4140625 0.421875 -2.4140625 0.421875 0 0 Z " fill="#070504" transform="translate(234.4140625,165.578125)"/>
<path d="M0 0 C1.09123169 -0.00630432 2.18246338 -0.01260864 3.3067627 -0.019104 C5.07400696 -0.01303131 5.07400696 -0.01303131 6.87695312 -0.00683594 C8.08637573 -0.00874939 9.29579834 -0.01066284 10.54187012 -0.01263428 C13.10066943 -0.01399617 15.65947565 -0.01029944 18.21826172 -0.00195312 C22.14240998 0.008746 26.06610041 -0.0018486 29.99023438 -0.01464844 C32.47330831 -0.01332684 34.95638195 -0.01076445 37.43945312 -0.00683594 C38.61761597 -0.0108844 39.79577881 -0.01493286 41.00964355 -0.019104 C42.64649109 -0.00964752 42.64649109 -0.00964752 44.31640625 0 C45.75844421 0.00238678 45.75844421 0.00238678 47.22961426 0.00482178 C49.65820312 0.25878906 49.65820312 0.25878906 52.65820312 2.25878906 C52.90820312 5.82128906 52.90820312 5.82128906 52.65820312 9.25878906 C50.91520925 11.00178294 48.5141406 10.38637588 46.14453125 10.38818359 C44.96661011 10.39133575 43.78868896 10.39448792 42.57507324 10.3977356 C41.2928186 10.39571136 40.01056396 10.39368713 38.68945312 10.39160156 C37.3836731 10.39255829 36.07789307 10.39351501 34.73254395 10.39450073 C31.9650759 10.39597739 29.19764009 10.39382418 26.43017578 10.38916016 C22.87557663 10.38346287 19.32105298 10.38674204 15.7664566 10.39273262 C12.38661599 10.39720653 9.00679589 10.39407792 5.62695312 10.39160156 C4.34469849 10.39362579 3.06244385 10.39565002 1.74133301 10.3977356 C-0.02554871 10.39300735 -0.02554871 10.39300735 -1.828125 10.38818359 C-2.87101685 10.387388 -3.91390869 10.38659241 -4.98840332 10.38577271 C-7.34179688 10.25878906 -7.34179688 10.25878906 -8.34179688 9.25878906 C-8.59179688 5.82128906 -8.59179688 5.82128906 -8.34179688 2.25878906 C-4.99480722 0.02746263 -3.90778226 0.00646794 0 0 Z " fill="#71FBB7" transform="translate(139.341796875,340.7412109375)"/>
<path d="M0 0 C4.90224215 -0.9470852 4.90224215 -0.9470852 8 0 C11.04447343 3.26107945 12.98462704 7.07486904 15.0625 11 C15.66811768 12.09546143 16.27373535 13.19092285 16.89770508 14.31958008 C25.60443052 30.28523159 32 44.45998063 32 63 C66.32 63 100.64 63 136 63 C136 63.33 136 63.66 136 64 C121.67505574 64.0233302 107.35011441 64.04091336 93.02515507 64.05181217 C86.3742647 64.05704174 79.72339214 64.06414072 73.07250977 64.07543945 C66.65997123 64.08626571 60.24744496 64.09227628 53.83489799 64.09487724 C51.38235722 64.09673197 48.92981715 64.10035347 46.47728157 64.10573006 C43.05523323 64.11293702 39.63323629 64.11399109 36.21118164 64.11352539 C34.6737027 64.1189183 34.6737027 64.1189183 33.10516357 64.12442017 C32.17823196 64.1230455 31.25130035 64.12167084 30.29627991 64.12025452 C29.48602387 64.12117631 28.67576784 64.1220981 27.8409586 64.12304783 C26 64 26 64 25 63 C24.72288474 60.77404152 24.47933071 58.54388779 24.25 56.3125 C21.89269389 37.24552023 11.65411872 20.28158734 1.3984375 4.37109375 C0 2 0 2 0 0 Z " fill="#108D61" transform="translate(279,298)"/>
<path d="M0 0 C2.22021484 -0.01123047 2.22021484 -0.01123047 5.95068359 0.36767578 C4.62240553 3.89207166 3.06086187 7.07679889 1.15771484 10.32470703 C0.61284424 11.26491699 0.06797363 12.20512695 -0.4934082 13.17382812 C-1.35639526 14.66197021 -1.35639526 14.66197021 -2.23681641 16.18017578 C-10.62343307 30.8466485 -17.51482039 44.36046315 -18.80322266 61.39892578 C-19.04931641 63.36767578 -19.04931641 63.36767578 -20.04931641 64.36767578 C-21.47878112 64.46321977 -22.91294305 64.48956017 -24.34559631 64.4879303 C-25.27252792 64.48930496 -26.19945953 64.49067963 -27.15447998 64.49209595 C-28.17946594 64.48850067 -29.2044519 64.4849054 -30.26049805 64.48120117 C-31.87005623 64.48142021 -31.87005623 64.48142021 -33.51213074 64.48164368 C-37.07793156 64.48094402 -40.6436809 64.47314916 -44.20947266 64.46533203 C-46.67427034 64.46346804 -49.13906839 64.46204405 -51.60386658 64.46104431 C-58.10585545 64.45721765 -64.60782216 64.44738611 -71.10980225 64.43634033 C-77.73872457 64.42559326 -84.36765334 64.42154737 -90.99658203 64.41650391 C-104.01416964 64.40576397 -117.03174185 64.38887675 -130.04931641 64.36767578 C-130.04931641 64.03767578 -130.04931641 63.70767578 -130.04931641 63.36767578 C-95.72931641 63.36767578 -61.40931641 63.36767578 -26.04931641 63.36767578 C-26.04931641 59.40767578 -26.04931641 55.44767578 -26.04931641 51.36767578 C-23.16095145 38.57634528 -16.97578922 26.99220528 -11.04931641 15.36767578 C-10.63423828 14.54122559 -10.21916016 13.71477539 -9.79150391 12.86328125 C-8.68565637 10.69598486 -7.53706341 8.56045844 -6.36181641 6.43017578 C-6.04253174 5.80385254 -5.72324707 5.1775293 -5.39428711 4.53222656 C-3.96880374 2.07547458 -2.87302441 0.51546042 0 0 Z " fill="#108D61" transform="translate(227.04931640625,297.63232421875)"/>
<path d="M0 0 C0 10.89 0 21.78 0 33 C-8.13513514 33 -8.13513514 33 -13 29 C-17.10573715 24.55211808 -19.27202055 20.7950241 -19.0625 14.6875 C-18.30124973 9.13594313 -15.1510016 5.58378399 -11 2 C-7.06263016 -0.68496026 -5.44557696 0 0 0 Z " fill="#FAB29B" transform="translate(176,122)"/>
<path d="M0 0 C10.14110909 1.1267899 10.14110909 1.1267899 13.5 4.4375 C14.1496875 5.05496094 14.799375 5.67242187 15.46875 6.30859375 C18.89145727 10.08928826 18.32800409 14.12982309 18.28125 19.015625 C17.78154276 24.31807409 15.2492295 26.87264655 11.4375 30.3125 C6.92455564 33.43684609 4.92251199 33 -1 33 C-0.67 22.11 -0.34 11.22 0 0 Z " fill="#FBB39D" transform="translate(336,122)"/>
<path d="M0 0 C1.258125 0.33 2.51625 0.66 3.8125 1 C9.07807405 2.05311481 14.21265531 2.2249544 19.5625 2.25 C20.35309814 2.25902344 21.14369629 2.26804687 21.95825195 2.27734375 C27.5656852 2.24947784 32.56205574 1.36899296 38 0 C38 3.63 38 7.26 38 11 C31.41861872 13.51445918 26.01780563 14.4474578 19 14.3125 C17.74316406 14.31733398 17.74316406 14.31733398 16.4609375 14.32226562 C10.7132779 14.27333044 5.57097139 13.40959054 0 12 C0 8.04 0 4.08 0 0 Z " fill="#494641" transform="translate(237,404)"/>
<path d="M0 0 C2.4375 0.8125 2.4375 0.8125 4.4375 2.8125 C4.69628906 5.19506836 4.69628906 5.19506836 4.703125 8.15234375 C4.70570313 9.21517578 4.70828125 10.27800781 4.7109375 11.37304688 C4.70320313 12.48744141 4.69546875 13.60183594 4.6875 14.75 C4.69523437 15.86052734 4.70296875 16.97105469 4.7109375 18.11523438 C4.70835937 19.17935547 4.70578125 20.24347656 4.703125 21.33984375 C4.70086914 22.31687256 4.69861328 23.29390137 4.69628906 24.30053711 C4.4375 26.8125 4.4375 26.8125 2.4375 29.8125 C-0.5625 30.1875 -0.5625 30.1875 -3.5625 29.8125 C-6.67746916 25.14004625 -5.89100857 20.30664246 -5.875 14.8125 C-5.89111328 13.70648438 -5.90722656 12.60046875 -5.92382812 11.4609375 C-5.92447266 10.40132812 -5.92511719 9.34171875 -5.92578125 8.25 C-5.92876221 7.27933594 -5.93174316 6.30867187 -5.93481445 5.30859375 C-5.5625 2.8125 -5.5625 2.8125 -4.19995117 0.9609375 C-2.5625 -0.1875 -2.5625 -0.1875 0 0 Z " fill="#030202" transform="translate(256.5625,122.1875)"/>
<path d="M0 0 C3.63 0 7.26 0 11 0 C11 7.59 11 15.18 11 23 C4.07 23 -2.86 23 -10 23 C-10 22.67 -10 22.34 -10 22 C-6.7 22 -3.4 22 0 22 C0 14.74 0 7.48 0 0 Z " fill="#4AA1C3" transform="translate(56,216)"/>
<path d="M0 0 C3.63 0 7.26 0 11 0 C11 7.26 11 14.52 11 22 C13.97 22 16.94 22 20 22 C20 22.33 20 22.66 20 23 C13.4 23 6.8 23 0 23 C0 15.41 0 7.82 0 0 Z " fill="#4BA3C5" transform="translate(445,216)"/>
<path d="M0 0 C3.63 0 7.26 0 11 0 C11 7.26 11 14.52 11 22 C7.37 22 3.74 22 0 22 C0 14.74 0 7.48 0 0 Z " fill="#4AA3C5" transform="translate(166,216)"/>
<path d="M0 0 C0.82435547 -0.020625 1.64871094 -0.04125 2.49804688 -0.0625 C3.29146484 -0.06765625 4.08488281 -0.0728125 4.90234375 -0.078125 C5.99083618 -0.09214355 5.99083618 -0.09214355 7.10131836 -0.10644531 C9.63292492 0.35367489 10.53507826 1.21100886 12.0625 3.25 C11.81796876 6.59192692 11.45706443 7.85543557 9.0625 10.25 C6.10397891 10.69360072 3.11301549 10.57412652 0.125 10.5625 C-0.69935547 10.57861328 -1.52371094 10.59472656 -2.37304688 10.61132812 C-3.16646484 10.61197266 -3.95988281 10.61261719 -4.77734375 10.61328125 C-5.50300537 10.61626221 -6.22866699 10.61924316 -6.97631836 10.62231445 C-9.51395459 10.14056476 -10.42075919 9.31543257 -11.9375 7.25 C-11.75 4.125 -11.75 4.125 -10.9375 1.25 C-7.53058509 -0.45345745 -3.75482483 0.02337634 0 0 Z " fill="#FEFEFE" transform="translate(66.9375,447.75)"/>
<path d="M0 0 C0.86625 -0.00515625 1.7325 -0.0103125 2.625 -0.015625 C5 0.25 5 0.25 8 2.25 C8.25 5.8125 8.25 5.8125 8 9.25 C6.06076948 11.18923052 2.63460405 10.46866472 0.0625 10.5 C-1.20464844 10.52578125 -2.47179687 10.5515625 -3.77734375 10.578125 C-5.37255859 10.41570312 -5.37255859 10.41570312 -7 10.25 C-9 7.25 -9 7.25 -8.8125 4.6875 C-7.29862979 0.14588937 -4.26916159 -0.02541168 0 0 Z " fill="#6FFAB6" transform="translate(112,340.75)"/>
<path d="M0 0 C2.97549085 2.89507218 5.49642139 5.66189518 8 9 C5.69 11.64 3.38 14.28 1 17 C-2 14 -5 11 -8 8 C-5.33333333 5.33333333 -2.66666667 2.66666667 0 0 Z " fill="#E6B81E" transform="translate(88,102)"/>
<path d="M0 0 C3.5625 0.25 3.5625 0.25 7 1 C8.59211531 4.18423061 8.38981631 7.53417863 8 11 C6.8125 13 6.8125 13 5 14 C2.4375 14.3125 2.4375 14.3125 0 14 C-2 12 -2 12 -2.265625 9.6875 C-2.26046875 8.800625 -2.2553125 7.91375 -2.25 7 C-2.25515625 6.113125 -2.2603125 5.22625 -2.265625 4.3125 C-2 2 -2 2 0 0 Z " fill="#0A0706" transform="translate(288,118)"/>
<path d="M0 0 C2 2 2 2 2.265625 4.3125 C2.26046875 5.199375 2.2553125 6.08625 2.25 7 C2.25515625 7.886875 2.2603125 8.77375 2.265625 9.6875 C2 12 2 12 0 14 C-2.74026253 14.35131571 -4.37613976 14.34419875 -6.8125 13 C-8.71020228 9.80386985 -8.55003751 6.616685 -8 3 C-5.98696203 -0.39037973 -3.76448625 -0.48262644 0 0 Z " fill="#090606" transform="translate(224,118)"/>
<path d="M0 0 C1.66666667 1.66666667 3.33333333 3.33333333 5 5 C5.598125 5.556875 6.19625 6.11375 6.8125 6.6875 C8 8 8 8 8 10 C5.47107279 12.73397536 3.10404867 14.93063422 0 17 C-2.31 14.36 -4.62 11.72 -7 9 C-1.125 1.125 -1.125 1.125 0 0 Z " fill="#E8BA1F" transform="translate(423,102)"/>
<path d="M0 0 C6.57692308 0.57692308 6.57692308 0.57692308 8 2 C8.1875 4.9375 8.1875 4.9375 8 8 C6 10 6 10 3 10.25 C0 10 0 10 -2 8 C-2.25 5 -2.25 5 -2 2 C-1.34 1.34 -0.68 0.68 0 0 Z " fill="#020405" transform="translate(6,381)"/>
<path d="M0 0 C3.375 -0.125 3.375 -0.125 7 0 C7.66 0.66 8.32 1.32 9 2 C8.54545455 7.45454545 8.54545455 7.45454545 6 10 C3.5625 10.4375 3.5625 10.4375 1 10 C-0.9375 7.8125 -0.9375 7.8125 -2 5 C-1.1875 2.1875 -1.1875 2.1875 0 0 Z " fill="#010101" transform="translate(264,24)"/>
<path d="M0 0 C3 0.25 3 0.25 5 2.25 C5.36796448 5.12012296 5.37509409 6.65774618 3.8125 9.125 C2 10.25 2 10.25 -0.5625 10.0625 C-3 9.25 -3 9.25 -5 7.25 C-5.25 4.75 -5.25 4.75 -5 2.25 C-3 0.25 -3 0.25 0 0 Z " fill="#080F0B" transform="translate(329,287.75)"/>
</svg>
